<svg width="340" height="340" viewBox="0 0 340 340" fill="none" xmlns="http://www.w3.org/2000/svg">
<rect width="340" height="340" fill="#FAF6FF"/>
<path d="M52.6196 269.306L45.5272 272.209C45.5272 272.209 47.9684 278.166 41.8212 280.804C40.6488 281.337 39.3399 281.492 38.0755 281.248C36.8111 281.005 35.6535 280.374 34.7628 279.444C34.0093 278.666 33.4498 277.721 33.1296 276.686C32.8095 275.651 32.7377 274.555 32.92 273.488C33.3076 271.012 35.2116 268.136 40.332 267.021L33.7904 251L26.7796 253.87L30.608 263.24C30.608 263.24 21.8156 269.809 26.2492 280.621C30.4924 290.991 40.7808 289.59 44.7588 287.965C47.8052 286.741 57.876 281.763 52.6196 269.306Z" fill="#DFE2E6"/>
<path d="M25.4326 250.141L32.5508 247.229L29.8318 240.583L22.7136 243.495L25.4326 250.141Z" fill="#DFE2E6"/>
<path d="M300.559 90.5896L307.121 93.3436C307.121 93.3436 309.433 87.8356 315.199 90.134C316.32 90.5565 317.281 91.318 317.949 92.3126C318.617 93.3072 318.959 94.4853 318.925 95.6828C318.908 96.6904 318.653 97.6796 318.18 98.5696C317.707 99.4595 317.031 100.225 316.205 100.803C314.322 102.163 311.187 102.843 307.087 100.184L300.885 114.981L307.372 117.701L311.01 109.031C311.01 109.031 321.095 110.493 325.29 100.463C329.316 90.8684 321.639 85.0272 317.96 83.4632C315.165 82.28 305.319 78.9616 300.559 90.5896Z" fill="#DFE2E6"/>
<path d="M306.174 120.796L299.59 118.035L297.01 124.186L303.595 126.948L306.174 120.796Z" fill="#DFE2E6"/>
<path d="M308.02 56.7664L293.89 62.798L295.576 64.8992L284.336 71.5904L300.697 65.1304L298.956 62.9612L308.02 56.7664Z" fill="#263238"/>
<path d="M259.142 15.3068L256.32 41.0856L260.808 40.3444L261.352 62.4172L265.385 33.0004L260.761 33.7688L259.142 15.3068Z" fill="#263238"/>
<path d="M286.544 22.032L278.554 44.6012C278.238 45.4928 278.26 46.4688 278.615 47.3455C278.969 48.2222 279.632 48.9391 280.478 49.3612V49.3612C281.367 49.8068 282.394 49.8929 283.344 49.6016C284.295 49.3104 285.098 48.6642 285.585 47.7972L297.451 26.758C297.665 26.3824 297.796 25.9655 297.836 25.5351C297.876 25.1047 297.824 24.6706 297.683 24.262C297.542 23.8533 297.316 23.4794 297.019 23.1652C296.722 22.851 296.362 22.6038 295.962 22.44L290.569 20.23C290.187 20.0738 289.778 19.9967 289.366 20.0033C288.953 20.01 288.547 20.1003 288.17 20.2688C287.794 20.4373 287.456 20.6804 287.176 20.9835C286.896 21.2866 286.681 21.6433 286.544 22.032V22.032Z" fill="#263238"/>
<path d="M281.024 64.2056C280.26 65.0709 279.256 65.6901 278.14 65.9848C277.024 66.2795 275.846 66.2364 274.754 65.8611C273.662 65.4857 272.706 64.795 272.007 63.8763C271.308 62.9575 270.898 61.8521 270.827 60.6998C270.757 59.5476 271.03 58.4003 271.612 57.4033C272.193 56.4062 273.058 55.6041 274.096 55.0985C275.133 54.593 276.298 54.4067 277.442 54.5631C278.585 54.7196 279.657 55.2119 280.521 55.9776C281.676 57.0037 282.377 58.4456 282.471 59.9877C282.566 61.5298 282.045 63.0464 281.024 64.2056V64.2056Z" fill="#263238"/>
<path d="M278.413 329.603H278.835H280.072H284.9L303.131 329.562V329.752L178.963 329.834L73.6787 329.78L41.7731 329.725L33.0963 329.691H30.8387H30.0703H30.8387H33.0963L41.7731 329.657L73.6787 329.603L178.963 329.548L303.131 329.63V329.82L284.921 329.657H280.093H278.855L278.413 329.603Z" fill="black"/>
<path d="M287.801 130.376C292.8 121.877 294.613 111.876 292.915 102.163C292.847 101.782 292.772 101.402 292.677 101.014C291.997 97.682 291.426 94.9688 289.814 92.1332C289.651 91.7796 289.481 91.4532 289.304 91.0792C289.127 90.7052 288.95 90.3992 288.767 90.0388C285.348 83.8647 280.412 78.6637 274.425 74.9267C268.438 71.1896 261.598 69.0398 254.549 68.68C252.162 46.0156 236.318 25.2892 215.109 17C193.9 8.71077 168.189 13.3144 151.114 28.4104C133.047 14.9056 108.118 11.152 86.8953 18.7612C65.6725 26.3704 48.8153 45.0908 43.4501 66.9936C41.8113 73.6848 41.1313 80.784 37.7109 86.768C35.1337 91.29 31.1829 94.8328 27.8033 98.7904C22.3929 105.13 18.4343 112.576 16.2047 120.607C13.975 128.638 13.5284 137.059 14.8959 145.281C16.2635 153.502 19.4122 161.325 24.1215 168.202C28.8308 175.078 34.9867 180.842 42.1581 185.089C30.7408 200.77 34.7461 225.461 50.5289 236.728C59.5933 243.195 71.6837 245.67 78.5925 254.408C81.5301 258.121 83.2301 262.657 85.7801 266.648C94.4501 280.248 113.714 285.777 128.28 278.888L205.65 259.223C231.972 261.208 258.038 252.905 278.363 236.062C285.782 229.86 292.452 222.326 295.669 213.207C298.885 204.088 298.117 193.161 291.942 185.715C306.528 170.728 304.448 143.024 287.801 130.376Z" fill="#DFE2E6"/>
<path d="M212.02 70.72C212.616 70.3393 213.262 70.0419 213.938 69.836L214.298 67.9184L217.528 67.796L218.032 69.6796C218.72 69.8377 219.385 70.0846 220.01 70.414L221.622 69.3056L223.995 71.5088L223.043 73.1748C223.419 73.7725 223.714 74.4173 223.92 75.0924L225.845 75.4528L225.967 78.6828L224.077 79.186C223.924 79.8752 223.679 80.5408 223.349 81.1648L224.451 82.7764L222.254 85.1428L220.561 84.1704C219.964 84.5475 219.319 84.8425 218.644 85.0476L218.29 86.9652L215.06 87.0944L214.55 85.204C213.863 85.0487 213.199 84.8017 212.578 84.4696L210.966 85.578L208.593 83.3816L209.572 81.6884C209.197 81.0895 208.9 80.4451 208.688 79.7708L206.771 79.4104L206.648 76.1804L208.539 75.6772C208.691 74.9899 208.935 74.3264 209.266 73.7052L208.138 72.08L210.334 69.7068L212.02 70.686V70.72ZM213.836 74.9904C213.37 75.494 213.065 76.1243 212.957 76.8016C212.85 77.4789 212.946 78.1729 213.233 78.7957C213.52 79.4186 213.985 79.9424 214.569 80.3009C215.154 80.6595 215.832 80.8366 216.517 80.81C217.202 80.7834 217.864 80.5542 218.419 80.1514C218.974 79.7486 219.398 79.1903 219.635 78.5471C219.873 77.9039 219.915 77.2046 219.755 76.5376C219.596 75.8706 219.242 75.266 218.739 74.8C218.406 74.4883 218.015 74.2454 217.589 74.0852C217.162 73.925 216.708 73.8506 216.252 73.8664C215.797 73.8822 215.349 73.9878 214.934 74.1772C214.519 74.3666 214.146 74.636 213.836 74.97V74.9904Z" fill="#F8F9FA"/>
<path d="M79.1293 203.109C80.5836 202.197 82.1508 201.479 83.791 200.974L84.6595 196.294L92.5141 196L93.7913 200.59C95.4627 200.97 97.0772 201.567 98.5935 202.367L102.502 199.682L108.274 205.027L105.886 209.144C106.806 210.596 107.528 212.166 108.032 213.81L112.693 214.68L113 222.543L108.402 223.758C108.031 225.437 107.433 227.059 106.627 228.578L109.309 232.49L103.97 238.257L99.8707 235.878C98.4196 236.8 96.8517 237.522 95.209 238.026L94.2383 242.693L86.3837 243L85.1065 238.397C83.4712 238.03 81.891 237.45 80.4065 236.671L76.4984 239.356L70.7255 234.012L73.1011 229.907C72.1838 228.428 71.4666 226.833 70.9682 225.164L66.3065 224.295L66 216.431L70.5851 215.153C70.9645 213.48 71.5613 211.863 72.3603 210.345L69.6783 206.42L75.0807 200.731L79.1932 203.109H79.1293ZM83.5356 213.504C82.4019 214.728 81.6564 216.261 81.3935 217.91C81.1306 219.559 81.3621 221.248 82.0588 222.765C82.7554 224.282 83.8858 225.558 85.3071 226.432C86.7283 227.305 88.3764 227.737 90.0428 227.672C91.7093 227.608 93.3192 227.05 94.6688 226.07C96.0185 225.089 97.0473 223.729 97.6249 222.163C98.2026 220.597 98.3032 218.895 97.9141 217.271C97.525 215.648 96.6636 214.176 95.4389 213.043C94.6275 212.29 93.6758 211.705 92.6382 211.32C91.6006 210.936 90.4975 210.76 89.3919 210.803C88.2863 210.845 87.2 211.106 86.1952 211.569C85.1903 212.033 84.2865 212.69 83.5356 213.504V213.504Z" fill="#F8F9FA"/>
<path d="M74.1207 135C73.6379 133.778 72.8869 132.68 71.923 131.787C70.9591 130.893 69.8069 130.228 68.5515 129.839C66.3823 129.22 63.8391 129.465 62.1459 127.976C61.3435 127.296 60.8675 126.262 60.1603 125.46C58.8065 124.084 57.0042 123.24 55.0807 123.08C48.7295 122.223 42.9019 126.568 40.5831 131.655C37.9855 133.375 35.3471 135.13 33.3819 137.55C31.4167 139.971 30.2131 143.201 30.9407 146.227C31.4711 148.451 32.9807 150.341 33.5247 152.565C34.0279 154.605 33.6947 156.726 33.8511 158.807C34.0075 160.888 34.8983 163.166 36.8431 163.928C39.2435 164.866 42.2151 163.105 44.4251 164.417C45.9279 165.308 46.4175 167.26 47.6415 168.497C49.7767 170.66 53.3671 170.102 56.2367 169.109C59.5614 167.958 62.7439 166.432 65.7227 164.56C67.7141 163.408 69.4773 161.901 70.9247 160.113C71.6445 159.217 72.1778 158.187 72.4931 157.082C72.8084 155.977 72.8994 154.821 72.7607 153.68C72.5295 152.32 71.8699 151.001 71.7815 149.6C71.6319 147.145 73.2503 144.976 74.1275 142.671C75.0775 140.202 75.0751 137.468 74.1207 135V135Z" fill="#F8F9FA"/>
<path d="M69.3881 161.697L63.1865 165.968L63.1797 165.981L69.5241 168.225L69.3881 161.697Z" fill="#F8F9FA"/>
<path d="M49.1584 146.288C49.1598 146.796 49.0104 147.293 48.7292 147.715C48.4481 148.138 48.0477 148.467 47.579 148.662C47.1103 148.857 46.5943 148.909 46.0964 148.81C45.5985 148.711 45.141 148.467 44.7821 148.108C44.4232 147.749 44.1789 147.292 44.0802 146.794C43.9815 146.296 44.0328 145.78 44.2277 145.311C44.4226 144.842 44.7522 144.442 45.1748 144.161C45.5975 143.88 46.094 143.73 46.6016 143.732C46.9374 143.732 47.2699 143.798 47.5801 143.926C47.8903 144.055 48.1722 144.243 48.4096 144.481C48.647 144.718 48.8353 145 48.9638 145.31C49.0923 145.62 49.1584 145.953 49.1584 146.288V146.288Z" fill="#263238"/>
<path d="M57.1214 146.288C57.1214 146.794 56.9715 147.288 56.6905 147.709C56.4096 148.129 56.0103 148.457 55.5431 148.651C55.0759 148.844 54.5618 148.895 54.0658 148.796C53.5698 148.697 53.1143 148.454 52.7567 148.096C52.3991 147.739 52.1556 147.283 52.0569 146.787C51.9583 146.291 52.0089 145.777 52.2024 145.31C52.396 144.843 52.7237 144.443 53.1441 144.163C53.5646 143.882 54.0589 143.732 54.5646 143.732C55.2427 143.732 55.8931 144.001 56.3725 144.481C56.852 144.96 57.1214 145.61 57.1214 146.288V146.288Z" fill="#263238"/>
<path d="M65.0491 146.288C65.0504 146.796 64.9012 147.292 64.6203 147.715C64.3394 148.137 63.9395 148.467 63.4712 148.662C63.0029 148.857 62.4872 148.909 61.9895 148.81C61.4918 148.712 61.0343 148.469 60.6751 148.11C60.3159 147.752 60.0711 147.295 59.9716 146.798C59.8722 146.3 59.9225 145.785 60.1164 145.316C60.3102 144.847 60.6388 144.446 61.0605 144.164C61.4822 143.882 61.9781 143.732 62.4855 143.732C62.8218 143.731 63.155 143.796 63.466 143.924C63.777 144.052 64.0596 144.241 64.2978 144.478C64.5359 144.716 64.7249 144.998 64.8538 145.308C64.9827 145.619 65.0491 145.952 65.0491 146.288V146.288Z" fill="#263238"/>
<path d="M136.624 40.1212C135.819 38.8183 134.096 38.5045 132.58 38.3713C127.069 37.8712 121.517 38.0629 116.054 38.9419C114.159 39.2557 111.375 39.0846 111.186 37.1255C111.072 35.9747 112.133 35.0142 113.184 34.5958C115.078 33.8825 117.133 34.2249 119.132 34.1773C121.13 34.1298 123.403 33.4641 124.208 31.6286C125.43 28.8326 122.257 25.9225 119.255 25.504C116.252 25.0856 113.099 25.9035 110.201 25L103.883 25.1331C99.214 25.213 94.5737 25.8906 90.0749 27.1493C88.8153 27.5012 87.3378 28.1764 87.2337 29.4793C87.1295 30.7822 88.4649 31.6381 89.071 32.7698C90.2928 35.0427 88.2944 37.9148 85.8793 38.8088C83.4643 39.7027 80.7934 39.3413 78.2268 39.5411C75.6602 39.7408 72.7905 40.8249 71.9476 43.2595C71.2752 45.1616 72.0802 47.387 71.4931 49.3365C70.7449 51.8187 68.0172 53.1406 65.479 53.5781C62.9408 54.0155 60.2511 53.9585 57.9023 55.0331C56.1784 55.8184 54.7712 57.1685 53.9114 58.862C53.0515 60.5555 52.7901 62.4921 53.1698 64.3543C53.5495 66.2166 54.5479 67.8941 56.0014 69.112C57.4548 70.33 59.2772 71.016 61.1698 71.0578C62.9882 71.1053 64.7687 70.5537 66.5871 70.4586C67.9188 70.3599 69.2468 70.6933 70.3755 71.4096C70.4762 73.3571 71.1642 75.2278 72.3482 76.7734C73.5323 78.3191 75.1564 79.4667 77.0051 80.0639C79.5149 80.7391 82.2046 80.3112 84.7523 80.8533C87.3 81.3953 89.9044 83.5541 89.4214 86.1219C89.0805 87.9478 87.2715 89.2888 87.12 91.1528C86.9495 93.4162 89.4025 95.0805 91.6565 95.2802C93.9106 95.4799 96.1836 94.7952 98.4472 94.9283C100.711 95.0615 103.239 96.507 103.287 98.7324C103.344 101.262 100.379 103.05 100.322 105.58C100.275 107.7 102.302 109.27 104.272 110.04C106.242 110.81 108.448 111.2 110.002 112.636C111.555 114.072 111.82 117.144 109.888 118C113.004 117.886 114.841 113.34 112.672 111.077C111.337 109.679 109.083 109.298 108.041 107.662C106.895 105.836 107.899 103.307 109.557 101.956C111.214 100.606 113.345 99.9782 115.334 99.1033C117.323 98.2284 119.274 96.8113 119.776 94.7096C120.543 91.5617 117.531 88.5755 114.377 87.8718C111.223 87.168 107.965 87.9574 104.745 88.1571C101.525 88.3568 97.8505 87.6911 96.0321 85.0092L106.564 79.9783C107.071 79.8139 107.54 79.5491 107.943 79.1995C108.347 78.85 108.676 78.4228 108.912 77.9431C109.49 76.1267 107.426 74.6431 105.702 73.8538L98.8355 70.7249C98.8083 70.305 98.7189 69.8915 98.5703 69.4981C102.728 67.7768 107.435 68.4425 111.896 69.0416C116.357 69.6408 121.13 70.1258 125.155 68.0906C129.18 66.0554 131.785 60.5586 129.19 56.8591C127.788 54.862 125.089 53.502 125.032 51.0579C124.985 49.0417 126.926 47.5106 128.82 46.8639C130.714 46.2172 132.817 46.0936 134.579 45.1235C136.34 44.1535 137.685 41.833 136.624 40.1212Z" fill="#F8F9FA"/>
<path d="M232.874 102.524C234.226 102.524 235.322 101.428 235.322 100.076C235.322 98.7236 234.226 97.6276 232.874 97.6276C231.522 97.6276 230.426 98.7236 230.426 100.076C230.426 101.428 231.522 102.524 232.874 102.524Z" fill="#263238"/>
<path d="M82.1373 57.6356L86.3903 65.281C86.5587 65.5827 86.8293 65.8111 87.1513 65.9235C87.4733 66.0358 87.8244 66.0242 88.1386 65.8908V65.8908C88.4698 65.7518 88.7356 65.4879 88.8807 65.154C89.0258 64.8201 89.039 64.442 88.9176 64.0984L85.9963 55.7416C85.9436 55.5926 85.8605 55.4566 85.7526 55.3427C85.6447 55.2288 85.5144 55.1394 85.3703 55.0805C85.2261 55.0216 85.0713 54.9945 84.9162 55.0009C84.761 55.0074 84.6089 55.0473 84.4699 55.1179L82.6174 56.088C82.4835 56.1544 82.3641 56.2479 82.2668 56.3628C82.1694 56.4777 82.096 56.6117 82.0511 56.7565C82.0061 56.9013 81.9906 57.054 82.0055 57.2051C82.0203 57.3563 82.0652 57.5027 82.1373 57.6356V57.6356Z" fill="#263238"/>
<path d="M91.9837 69.1815C92.0341 69.6715 91.9671 70.1691 91.7914 70.6117C91.6156 71.0542 91.339 71.4217 90.9962 71.6678C90.6535 71.9139 90.2602 72.0275 89.8658 71.9944C89.4715 71.9612 89.0938 71.7828 88.7806 71.4816C88.4673 71.1803 88.2325 70.7698 88.1057 70.3019C87.9789 69.834 87.9659 69.3296 88.0683 68.8524C88.1706 68.3752 88.3838 67.9467 88.6809 67.6208C88.978 67.295 89.3457 67.0865 89.7375 67.0216C89.9985 66.9784 90.2638 67.0001 90.5181 67.0853C90.7724 67.1706 91.0107 67.3178 91.2194 67.5184C91.4281 67.7191 91.6031 67.9693 91.7342 68.2547C91.8654 68.5401 91.9501 68.855 91.9837 69.1815Z" fill="#263238"/>
<path d="M95.7665 42.4628L95.9705 53.6284C95.978 54.0699 96.1467 54.4933 96.4448 54.819C96.7429 55.1446 97.1498 55.35 97.5889 55.3964V55.3964C98.054 55.4434 98.5193 55.3091 98.8879 55.0216C99.2565 54.734 99.5 54.3154 99.5677 53.8528L101.308 42.7212C101.338 42.5224 101.326 42.3196 101.272 42.1259C101.218 41.9323 101.124 41.7522 100.995 41.5975C100.867 41.4428 100.707 41.317 100.527 41.2282C100.346 41.1395 100.149 41.0898 99.9485 41.0824L97.2285 41.0008C97.0347 40.9942 96.8416 41.0275 96.6612 41.0986C96.4808 41.1697 96.317 41.2772 96.1799 41.4143C96.0428 41.5514 95.9353 41.7152 95.8642 41.8956C95.7931 42.076 95.7598 42.269 95.7665 42.4628V42.4628Z" fill="#263238"/>
<path d="M100.26 61.7952C100.067 62.2973 99.73 62.7311 99.2911 63.0416C98.8521 63.3522 98.3309 63.5257 97.7934 63.5403C97.2559 63.5548 96.7261 63.4096 96.271 63.1232C95.8159 62.8367 95.456 62.4218 95.2366 61.9309C95.0173 61.4399 94.9483 60.8949 95.0386 60.3648C95.1288 59.8347 95.3741 59.3433 95.7436 58.9525C96.113 58.5618 96.59 58.2893 97.1142 58.1696C97.6384 58.0498 98.1864 58.0881 98.6889 58.2797C99.0231 58.407 99.3289 58.5991 99.5887 58.8448C99.8486 59.0905 100.058 59.3851 100.203 59.7117C100.349 60.0382 100.429 60.3903 100.439 60.7479C100.449 61.1054 100.388 61.4613 100.26 61.7952Z" fill="#263238"/>
<path d="M270.391 117.471L264.604 133.791C264.372 134.433 264.383 135.137 264.633 135.772C264.883 136.407 265.357 136.928 265.964 137.239V137.239C266.608 137.561 267.351 137.623 268.039 137.413C268.728 137.203 269.309 136.736 269.664 136.11L278.259 120.871C278.411 120.599 278.504 120.298 278.531 119.987C278.558 119.676 278.519 119.364 278.416 119.069C278.313 118.775 278.149 118.506 277.934 118.279C277.72 118.053 277.459 117.875 277.171 117.757L273.268 116.152C272.993 116.044 272.699 115.993 272.403 116.001C272.108 116.009 271.817 116.077 271.549 116.2C271.28 116.323 271.039 116.499 270.841 116.718C270.642 116.936 270.489 117.192 270.391 117.471V117.471Z" fill="#F8F9FA"/>
<path d="M266.389 148.01C265.836 148.636 265.11 149.085 264.302 149.298C263.494 149.512 262.641 149.481 261.851 149.209C261.061 148.938 260.369 148.438 259.863 147.774C259.357 147.109 259.059 146.309 259.008 145.475C258.957 144.642 259.154 143.811 259.574 143.089C259.995 142.368 260.62 141.787 261.371 141.42C262.122 141.054 262.964 140.919 263.792 141.031C264.62 141.144 265.396 141.5 266.021 142.053C266.858 142.796 267.366 143.84 267.435 144.956C267.504 146.072 267.127 147.17 266.389 148.01Z" fill="#F8F9FA"/>
<path d="M155.001 47.0214H161.141C161.141 47.0214 161.141 41.1452 166.508 41.0351C167.578 41.0262 168.622 41.3726 169.488 42.0237C170.354 42.6748 170.997 43.5963 171.322 44.6536C171.648 45.5744 171.778 46.5577 171.702 47.5357C171.626 48.5136 171.346 49.4627 170.882 50.3174C169.844 52.2761 167.554 54.0539 163.415 53.2201V69H169.48V59.7885C169.48 59.7885 178 57.2791 178 46.5887C178 36.3625 169.942 34.0026 166.493 34.0026C163.87 33.9475 154.88 34.6712 155.001 47.0214Z" fill="#263238"/>
<path d="M169 72H163V78H169V72Z" fill="#263238"/>
<path d="M34.4648 311.132C34.4648 315.144 36.2192 317.3 37.6948 318.402C39.6736 319.877 42.1964 320.312 44.454 320.312C46.0941 320.3 47.7275 320.101 49.3228 319.721C52.5052 325.195 58.0676 329.547 67.7848 329.105C89.4904 328.098 88.1372 299.756 88.1372 299.756H45.202C45.202 299.756 45.134 300.688 45.1476 302.204C43.1076 302.136 39.7076 302.394 37.28 304.468C35.9676 305.556 34.4648 307.59 34.4648 311.132ZM38.6944 311.132C38.6944 309.568 39.1228 308.446 40.0068 307.732C41.4416 306.515 43.9168 306.372 45.3856 306.488C45.6834 309.672 46.3849 312.804 47.4732 315.811C45.338 316.192 42.0332 316.409 40.2176 315.029C39.1976 314.233 38.6876 312.975 38.6876 311.132H38.6944Z" fill="#455A64"/>
<path d="M78.5625 319.381C78.8403 318.801 79.156 318.24 79.5077 317.701C80.2734 316.358 80.9547 314.968 81.5477 313.539C82.1358 312.111 82.6309 310.646 83.0301 309.153C83.1655 308.522 83.3403 307.9 83.5537 307.29C83.5378 307.938 83.4442 308.582 83.2749 309.208C82.9439 310.736 82.4751 312.232 81.8741 313.675C81.2779 315.122 80.5542 316.512 79.7117 317.83C79.3949 318.393 79.0088 318.914 78.5625 319.381V319.381Z" fill="#F8F9FA"/>
<path d="M75.1484 319.863C75.4217 317.821 75.8099 315.796 76.3112 313.798C76.6985 311.774 77.2025 309.773 77.8208 307.807C77.5482 309.849 77.16 311.874 76.658 313.873C76.2757 315.898 75.7716 317.899 75.1484 319.863V319.863Z" fill="#F8F9FA"/>
<path d="M70 319.381C70.0146 318.795 70.0875 318.212 70.2176 317.64C70.3876 316.579 70.6188 315.104 70.8364 313.478C71.054 311.853 71.2036 310.364 71.3124 309.29C71.339 308.706 71.4163 308.126 71.5436 307.556C71.6117 308.138 71.6117 308.727 71.5436 309.31C71.496 310.391 71.3804 311.887 71.1628 313.526C70.9452 315.165 70.68 316.634 70.442 317.688C70.3547 318.266 70.2065 318.834 70 319.381V319.381Z" fill="#F8F9FA"/>
<path d="M65.7663 308.167C65.8316 308.704 65.8498 309.246 65.8207 309.786C65.8207 310.779 65.8207 312.152 65.9295 313.662C66.0383 315.171 66.1607 316.545 66.2763 317.531C66.3677 318.063 66.4132 318.603 66.4123 319.143C66.2132 318.639 66.0828 318.11 66.0247 317.572C65.8032 316.285 65.6534 314.986 65.5759 313.682C65.5008 312.382 65.5008 311.079 65.5759 309.779C65.5713 309.236 65.6353 308.695 65.7663 308.167V308.167Z" fill="#F8F9FA"/>
<path d="M59.0885 306.461C59.1737 307.065 59.2192 307.673 59.2245 308.283C59.3221 309.747 59.5152 311.203 59.8025 312.642C60.0949 314.078 60.4833 315.494 60.9653 316.878C61.1965 317.443 61.3896 318.022 61.5433 318.612C61.2036 318.1 60.9295 317.547 60.7273 316.967C60.176 315.589 59.7504 314.164 59.4557 312.71C59.16 311.257 58.9984 309.779 58.9729 308.297C58.9318 307.682 58.9706 307.065 59.0885 306.461V306.461Z" fill="#F8F9FA"/>
<path d="M52.0277 309.126C52.1365 309.126 52.5649 311.486 53.7481 314.206C54.9313 316.926 56.3661 318.871 56.2709 318.966C55.881 318.603 55.5444 318.186 55.2713 317.728C54.5485 316.671 53.9292 315.546 53.4217 314.369C52.9156 313.193 52.5195 311.973 52.2385 310.724C52.093 310.204 52.022 309.666 52.0277 309.126Z" fill="#F8F9FA"/>
<path d="M57.6922 330.063H75.957V326.582H57.6922V330.063Z" fill="#455A64"/>
<path d="M283.675 258.645C283.6 258.733 282.995 258.366 282.315 257.815C281.635 257.264 281.132 256.748 281.207 256.659C281.281 256.571 281.887 256.938 282.567 257.482C283.247 258.026 283.75 258.55 283.675 258.645Z" fill="#263238"/>
<path d="M302.364 230.71C302.479 228.099 302.554 225.42 301.724 222.945C300.895 220.47 299.004 218.185 296.434 217.654C293.517 217.049 290.525 218.892 288.886 221.388C287.247 223.883 286.69 226.902 286.207 229.847C282.874 250.139 281.645 270.72 282.542 291.264L294.489 292.937C299.739 271.504 301.412 252.763 302.364 230.71Z" fill="#455A64"/>
<path d="M294.774 217.559C294.765 217.625 294.747 217.689 294.72 217.75C294.665 217.899 294.604 218.076 294.523 218.294C294.325 218.797 294.06 219.49 293.727 220.334C293.557 220.782 293.339 221.265 293.163 221.823C292.986 222.38 292.789 222.986 292.578 223.632C292.367 224.278 292.149 224.992 291.898 225.712L291.279 228.079C290.293 231.983 289.533 235.94 289.001 239.931C288.321 244.426 287.927 249.404 287.593 254.626C286.988 265.098 286.913 274.598 286.621 281.472C286.492 284.906 286.376 287.688 286.247 289.632C286.179 290.564 286.131 291.298 286.097 291.842C286.097 292.074 286.057 292.257 286.043 292.414C286.05 292.479 286.05 292.545 286.043 292.611C286.043 292.611 286.043 292.543 286.043 292.414C286.043 292.284 286.043 292.067 286.043 291.836C286.043 291.298 286.084 290.557 286.111 289.626C286.193 287.701 286.261 284.927 286.356 281.466C286.546 274.598 286.594 265.098 287.206 254.612C287.539 249.37 287.974 244.412 288.647 239.884C289.206 235.89 290.007 231.934 291.048 228.038C291.279 227.208 291.497 226.42 291.728 225.665C291.959 224.91 292.211 224.244 292.408 223.591C292.605 222.938 292.836 222.346 293.027 221.789C293.217 221.231 293.448 220.748 293.625 220.306L294.495 218.266C294.591 218.056 294.672 217.886 294.733 217.743C294.74 217.68 294.754 217.619 294.774 217.559V217.559Z" fill="#263238"/>
<path d="M295.884 217.6C296.506 218.337 296.998 219.174 297.339 220.075C298.255 222.542 298.628 225.176 298.434 227.8C298.114 234.403 297.522 243.501 296.74 253.545C295.958 263.589 295.074 272.673 294.367 279.235C294.014 282.52 293.687 285.172 293.483 287.008C293.368 287.892 293.279 288.592 293.211 289.116C293.177 289.333 293.157 289.51 293.13 289.66C293.124 289.723 293.111 289.784 293.089 289.843C293.08 289.78 293.08 289.716 293.089 289.653C293.089 289.503 293.089 289.327 293.13 289.102C293.177 288.585 293.238 287.878 293.32 286.987C293.497 285.111 293.755 282.465 294.068 279.208C294.694 272.633 295.523 263.568 296.312 253.511C297.101 243.454 297.733 234.376 298.128 227.793C298.346 225.19 298.017 222.571 297.162 220.102C296.805 219.235 296.377 218.398 295.884 217.6V217.6Z" fill="#263238"/>
<path d="M304.165 248.492C303.382 248.431 302.615 248.233 301.9 247.908C300.69 247.472 299.738 247.03 299.779 246.915C300.562 246.976 301.328 247.174 302.043 247.5C303.281 247.935 304.205 248.377 304.165 248.492Z" fill="#263238"/>
<path d="M305.607 236.314C305.654 236.422 304.689 236.994 303.451 237.51C302.214 238.027 301.166 238.428 301.119 238.32C301.071 238.211 302.037 237.64 303.274 237.123C304.512 236.606 305.559 236.205 305.607 236.314Z" fill="#263238"/>
<path d="M304.86 226.379C303.679 226.579 302.467 226.495 301.324 226.134C301.324 226.012 302.133 225.971 303.106 226.039C304.078 226.107 304.867 226.256 304.86 226.379Z" fill="#263238"/>
<path d="M292.53 220.007C292.428 220.068 291.904 219.422 291.36 218.552C290.971 218.058 290.695 217.484 290.551 216.872C290.653 216.804 291.176 217.457 291.72 218.328C292.109 218.822 292.385 219.395 292.53 220.007Z" fill="#263238"/>
<path d="M288.457 226.018C287.913 226.213 287.329 226.274 286.757 226.195C285.825 226.195 285.07 226.066 285.07 225.944C285.612 225.748 286.193 225.688 286.764 225.767C287.702 225.76 288.457 225.896 288.457 226.018Z" fill="#263238"/>
<path d="M285.526 238.041C284.903 238.014 284.294 237.847 283.745 237.551C282.799 237.17 282.072 236.776 282.119 236.667C282.743 236.694 283.352 236.861 283.901 237.157C284.846 237.538 285.601 237.932 285.526 238.041Z" fill="#263238"/>
<path d="M285.218 248.152C285.218 248.268 284.538 248.506 283.695 248.69C282.852 248.873 282.111 248.928 282.09 248.812C282.07 248.696 282.77 248.452 283.607 248.275C284.443 248.098 285.191 248.037 285.218 248.152Z" fill="#263238"/>
<path d="M283.84 264.69C283.84 264.806 283.16 265.037 282.229 265.2C281.297 265.363 280.556 265.404 280.536 265.282C280.515 265.159 281.216 264.942 282.154 264.778C282.7 264.612 283.279 264.581 283.84 264.69V264.69Z" fill="#263238"/>
<path d="M282.927 273.822C282.981 273.924 282.376 274.353 281.567 274.774C280.757 275.196 280.077 275.454 280.023 275.352C279.969 275.25 280.567 274.822 281.383 274.4C282.199 273.979 282.879 273.72 282.927 273.822Z" fill="#263238"/>
<path d="M290.363 284.186C290.261 284.247 289.737 283.506 289.193 282.567C288.799 282.021 288.526 281.398 288.391 280.738C288.493 280.677 289.016 281.418 289.56 282.356C290.104 283.295 290.485 284.124 290.363 284.186Z" fill="#263238"/>
<path d="M292.531 266.968C292.62 267.05 292.035 267.757 291.226 268.546C290.416 269.335 289.702 269.906 289.621 269.817C289.539 269.729 290.124 269.029 290.926 268.24C291.729 267.451 292.45 266.88 292.531 266.968Z" fill="#263238"/>
<path d="M292.054 257.931C291.972 258.013 291.428 257.564 290.843 256.938C290.259 256.313 289.857 255.728 289.946 255.653C290.034 255.578 290.578 256.013 291.156 256.646C291.734 257.278 292.142 257.849 292.054 257.931Z" fill="#263238"/>
<path d="M293.537 246.384C293.626 246.459 293.136 247.146 292.449 247.921C291.762 248.696 291.13 249.281 291.042 249.166C290.953 249.05 291.443 248.404 292.13 247.636C292.816 246.867 293.449 246.303 293.537 246.384Z" fill="#263238"/>
<path d="M294.368 238C294.286 238.082 293.606 237.544 292.852 236.803C292.097 236.062 291.546 235.389 291.634 235.307C291.723 235.226 292.396 235.756 293.151 236.497C293.906 237.238 294.443 237.918 294.368 238Z" fill="#263238"/>
<path d="M296.006 226.678C296.108 226.739 295.768 227.494 295.245 228.371C294.721 229.248 294.218 229.908 294.116 229.854C294.014 229.799 294.354 229.031 294.877 228.154C295.401 227.276 295.904 226.617 296.006 226.678Z" fill="#263238"/>
<path d="M299.079 216.179C299.188 216.24 298.882 216.995 298.399 217.879C297.916 218.763 297.454 219.429 297.352 219.375C297.447 218.764 297.679 218.183 298.032 217.675C298.521 216.798 298.977 216.124 299.079 216.179Z" fill="#263238"/>
<path d="M302.599 220.946C302.647 221.054 302.171 221.388 301.532 221.694C300.893 222 300.328 222.163 300.281 222.061C300.233 221.959 300.709 221.619 301.348 221.313C301.987 221.007 302.518 220.844 302.599 220.946Z" fill="#263238"/>
<path d="M302.656 258.645C301.844 258.653 301.042 258.459 300.324 258.081C299.086 257.557 298.229 256.877 298.284 256.782C298.338 256.687 299.283 257.183 300.473 257.686C301.663 258.189 302.683 258.523 302.656 258.645Z" fill="#263238"/>
<path d="M301.24 266.628C301.24 266.744 300.56 266.982 299.636 267.158C299.091 267.334 298.512 267.371 297.949 267.267C297.949 267.152 298.629 266.914 299.554 266.737C300.098 266.562 300.678 266.524 301.24 266.628V266.628Z" fill="#263238"/>
<path d="M299.473 280.316C299.405 280.405 298.494 279.786 297.658 278.718C296.821 277.651 296.413 276.631 296.515 276.583C296.617 276.536 297.195 277.44 297.991 278.453C298.787 279.466 299.555 280.228 299.473 280.316Z" fill="#263238"/>
<path d="M280.269 286.579C280.195 286.491 280.677 285.947 281.357 285.369C282.037 284.791 282.643 284.396 282.717 284.485C282.792 284.573 282.309 285.117 281.629 285.695C280.949 286.273 280.351 286.668 280.269 286.579Z" fill="#263238"/>
<path d="M274.722 256.7C273.947 254.272 272.485 251.444 269.962 251.403C269.204 251.446 268.471 251.691 267.839 252.113C267.208 252.535 266.701 253.119 266.372 253.803C265.675 255.162 265.343 256.678 265.406 258.203C265.719 269.014 267.564 279.727 270.887 290.02H280.21C280.098 278.698 278.247 267.46 274.722 256.7V256.7Z" fill="#455A64"/>
<path d="M257.877 241.4C256.578 236.184 252.688 233.369 248.166 233.111C244.045 233.832 242.447 237.871 241.958 242.046C241.468 246.221 242.76 250.342 244.032 254.334L256.312 292.733L267.92 291.482C264.241 274.332 262.133 258.434 257.877 241.4Z" fill="#455A64"/>
<path d="M269.959 251.403C269.657 251.819 269.391 252.261 269.163 252.722C268.69 254.043 268.54 255.459 268.728 256.85C268.912 258.624 269.116 260.76 269.408 263.099C269.701 265.438 270.136 268.008 270.659 270.688C271.713 276.046 272.903 280.854 273.658 284.362C274.039 286.11 274.338 287.531 274.508 288.524C274.59 288.973 274.651 289.347 274.705 289.66C274.737 289.791 274.751 289.926 274.746 290.061C274.683 289.939 274.64 289.808 274.617 289.673C274.549 289.374 274.454 288.993 274.345 288.558C274.1 287.518 273.767 286.124 273.366 284.43C272.536 280.942 271.326 276.148 270.238 270.769C269.714 268.083 269.306 265.506 269.021 263.146C268.871 261.97 268.769 260.841 268.674 259.794C268.579 258.747 268.477 257.754 268.429 256.87C268.26 255.438 268.462 253.986 269.014 252.654C269.234 252.173 269.557 251.746 269.959 251.403V251.403Z" fill="#263238"/>
<path d="M248.336 232.791C247.823 233.383 247.354 234.013 246.935 234.675C245.867 236.528 245.26 238.611 245.167 240.747C244.99 243.467 245.589 246.656 246.602 250.09C247.615 253.524 248.737 257.332 249.914 261.31C252.226 269.266 254.32 276.468 255.857 281.71C256.584 284.294 257.183 286.402 257.604 287.912L258.067 289.605C258.126 289.801 258.17 290.001 258.196 290.204C258.108 290.017 258.035 289.824 257.978 289.626C257.849 289.204 257.672 288.653 257.448 287.96C256.992 286.457 256.353 284.362 255.564 281.792C254 276.542 251.865 269.355 249.506 261.392L246.228 250.158C245.228 246.697 244.644 243.44 244.868 240.686C244.989 238.518 245.651 236.414 246.792 234.566C247.207 233.895 247.729 233.295 248.336 232.791V232.791Z" fill="#263238"/>
<path d="M265.383 290.244C265.281 290.067 265.194 289.88 265.125 289.687C264.968 289.313 264.724 288.776 264.445 288.055C263.887 286.627 263.18 284.526 262.446 281.894C261.711 279.262 260.984 276.08 260.283 272.53C259.583 268.981 258.869 265.084 258.1 260.97C257.332 256.856 256.394 253.014 255.38 249.567C254.474 246.505 253.337 243.516 251.98 240.625C251.067 238.677 250.021 236.794 248.852 234.988C248.451 234.308 248.091 233.866 247.873 233.526C247.75 233.363 247.64 233.19 247.547 233.009C247.697 233.149 247.829 233.306 247.941 233.478C248.179 233.804 248.567 234.253 248.988 234.892C250.219 236.673 251.31 238.547 252.252 240.496C253.65 243.384 254.816 246.379 255.741 249.451C256.865 253.211 257.795 257.027 258.529 260.882C259.29 264.962 260.018 268.879 260.684 272.442C261.351 276.005 262.044 279.16 262.724 281.799C263.404 284.437 264.084 286.559 264.581 287.987C264.819 288.708 265.043 289.258 265.172 289.639C265.262 289.834 265.333 290.036 265.383 290.244V290.244Z" fill="#263238"/>
<path d="M244.245 252.43C244.245 252.545 243.64 252.797 242.831 252.987C242.022 253.178 241.348 253.252 241.321 253.137C241.294 253.021 241.926 252.77 242.729 252.572C243.531 252.375 244.211 252.314 244.245 252.43Z" fill="#263238"/>
<path d="M243.012 244.508C243.012 244.63 242.128 244.678 241.054 244.718C240.398 244.811 239.732 244.792 239.082 244.664C239.692 244.38 240.362 244.252 241.034 244.29C242.135 244.249 243.019 244.392 243.012 244.508Z" fill="#263238"/>
<path d="M244.319 237.272C244.244 237.361 243.639 236.953 242.911 236.361C242.184 235.77 241.701 235.212 241.782 235.117C241.864 235.022 242.462 235.436 243.19 236.035C243.918 236.633 244.394 237.184 244.319 237.272Z" fill="#263238"/>
<path d="M247.859 230.574C247.975 230.574 247.941 231.166 247.927 231.853C247.914 232.54 247.927 233.097 247.785 233.118C247.642 233.138 247.472 232.567 247.499 231.839C247.526 231.112 247.744 230.52 247.859 230.574Z" fill="#263238"/>
<path d="M255.091 233.73C255.193 233.798 254.908 234.369 254.459 235.008C254.01 235.647 253.575 236.11 253.48 236.042C253.384 235.974 253.663 235.402 254.112 234.763C254.561 234.124 255.003 233.662 255.091 233.73Z" fill="#263238"/>
<path d="M259.76 241.89C259.801 241.998 259.202 242.345 258.4 242.665C257.598 242.984 256.945 243.154 256.897 243.046C256.85 242.937 257.455 242.59 258.257 242.27C259.06 241.951 259.76 241.781 259.76 241.89Z" fill="#263238"/>
<path d="M262.638 250.281C262.115 250.722 261.474 251 260.795 251.083C259.707 251.335 258.789 251.267 258.789 251.151C258.789 251.036 259.653 250.906 260.7 250.668C261.747 250.43 262.59 250.165 262.638 250.281Z" fill="#263238"/>
<path d="M249.56 247.894C249.445 247.86 249.526 247.282 249.744 246.602C249.961 245.922 250.22 245.398 250.329 245.432C250.437 245.466 250.363 246.051 250.145 246.731C249.927 247.411 249.669 247.928 249.56 247.894Z" fill="#263238"/>
<path d="M251.383 258.434C251.423 257.819 251.602 257.222 251.906 256.686C252.308 255.768 252.716 255.068 252.824 255.116C252.783 255.728 252.604 256.323 252.301 256.856C251.9 257.774 251.492 258.475 251.383 258.434Z" fill="#263238"/>
<path d="M246.876 261.317C246.302 261.306 245.736 261.181 245.21 260.95C244.319 260.671 243.599 260.413 243.626 260.27C243.653 260.127 244.428 260.229 245.333 260.515C246.237 260.8 246.924 261.208 246.876 261.317Z" fill="#263238"/>
<path d="M249.471 269.906C249.539 270.001 249.042 270.47 248.362 270.96C247.682 271.449 247.07 271.762 247.002 271.64C246.934 271.517 247.431 271.068 248.118 270.586C248.804 270.103 249.403 269.81 249.471 269.906Z" fill="#263238"/>
<path d="M251.559 278.467C251.559 278.582 250.968 278.834 250.199 279.024C249.431 279.215 248.751 279.276 248.724 279.16C248.696 279.045 249.308 278.8 250.084 278.61C250.859 278.419 251.532 278.351 251.559 278.467Z" fill="#263238"/>
<path d="M262.862 257.434C262.924 257.53 262.4 257.951 261.632 258.237C260.863 258.522 260.197 258.563 260.176 258.448C260.156 258.332 260.754 258.114 261.482 257.842C262.21 257.57 262.808 257.332 262.862 257.434Z" fill="#263238"/>
<path d="M264.48 270.756C264.433 270.864 263.8 270.674 263.079 270.334C262.359 269.994 261.815 269.654 261.862 269.525C261.91 269.396 262.542 269.606 263.263 269.946C263.984 270.286 264.521 270.64 264.48 270.756Z" fill="#263238"/>
<path d="M267.329 280.289C266.686 280.262 266.056 280.093 265.486 279.793C264.864 279.623 264.286 279.319 263.793 278.902C264.438 278.933 265.069 279.103 265.643 279.399C266.615 279.779 267.377 280.16 267.329 280.289Z" fill="#263238"/>
<path d="M252.015 287.762C251.954 287.654 252.695 287.144 253.6 286.45C254.504 285.756 255.157 285.138 255.245 285.219C255.334 285.301 254.776 286.062 253.885 286.783C252.994 287.504 252.063 287.864 252.015 287.762Z" fill="#263238"/>
<path d="M259.555 282.914C259.433 282.914 259.27 282.288 258.977 281.554C258.685 280.82 258.379 280.194 258.481 280.153C258.583 280.112 259.066 280.595 259.372 281.398C259.678 282.2 259.664 282.88 259.555 282.914Z" fill="#263238"/>
<path d="M257.556 271.442C257.488 271.544 256.999 271.306 256.468 270.926C255.938 270.545 255.557 270.157 255.625 270.062C255.693 269.967 256.183 270.198 256.713 270.579C257.243 270.96 257.624 271.32 257.556 271.442Z" fill="#263238"/>
<path d="M275.13 253.477C275.198 253.572 274.722 254.041 274.069 254.524C273.416 255.007 272.825 255.32 272.757 255.204C272.689 255.088 273.158 254.64 273.817 254.157C274.477 253.674 275.055 253.382 275.13 253.477Z" fill="#263238"/>
<path d="M277.775 260.719C277.259 260.952 276.682 261.012 276.13 260.889C275.205 260.787 274.518 260.481 274.552 260.365C274.586 260.25 275.3 260.365 276.17 260.46C277.041 260.556 277.768 260.596 277.775 260.719Z" fill="#263238"/>
<path d="M266.392 262.337C266.392 262.453 265.712 262.698 264.841 262.759C263.971 262.82 263.237 262.664 263.25 262.548C263.264 262.432 263.93 262.392 264.814 262.33C265.698 262.269 266.371 262.222 266.392 262.337Z" fill="#263238"/>
<path d="M267.371 255.496C267.371 255.612 266.691 255.626 265.909 255.272C265.127 254.918 264.706 254.388 264.787 254.306C264.869 254.225 265.393 254.572 266.086 254.884C266.78 255.197 267.385 255.374 267.371 255.496Z" fill="#263238"/>
<path d="M278.752 268.491C278.691 268.586 277.977 268.253 277.161 267.743C276.345 267.233 275.74 266.73 275.801 266.628C275.862 266.526 276.576 266.866 277.392 267.383C278.208 267.9 278.8 268.389 278.752 268.491Z" fill="#263238"/>
<path d="M306.531 288.803H245.793V299.567H306.531V288.803Z" fill="#D994F3"/>
<path d="M250.328 297.432L257.713 329.603H293.916L301.995 297.432H250.328Z" fill="#D994F3"/>
<path d="M306.497 299.581C306.497 299.703 292.795 299.798 275.897 299.798C258.999 299.798 245.297 299.703 245.297 299.581C245.297 299.458 258.992 299.37 275.897 299.37C292.802 299.37 306.497 299.465 306.497 299.581Z" fill="#263238"/>
<path d="M272.722 262.575C272.62 262.636 272.206 262.154 271.791 261.494C271.376 260.834 271.111 260.25 271.226 260.188C271.342 260.127 271.743 260.61 272.158 261.27C272.573 261.929 272.818 262.514 272.722 262.575Z" fill="#263238"/>
<path d="M272.744 271.239C272.712 270.674 272.822 270.111 273.063 269.6C273.349 268.736 273.675 268.063 273.784 268.104C273.893 268.144 273.784 268.872 273.464 269.736C273.145 270.599 272.852 271.273 272.744 271.239Z" fill="#263238"/>
<path d="M275.708 280.33C275.599 280.378 275.15 279.65 274.695 278.705C274.356 278.155 274.14 277.538 274.062 276.896C274.171 276.849 274.627 277.576 275.082 278.521C275.538 279.467 275.817 280.276 275.708 280.33Z" fill="#263238"/>
<path d="M269.279 287.64C269.191 287.565 269.551 287.001 270.088 286.382C270.625 285.763 271.129 285.328 271.217 285.41C271.305 285.491 270.945 286.049 270.408 286.668C269.871 287.286 269.381 287.722 269.279 287.64Z" fill="#263238"/>
<path d="M267.92 274.36C267.92 274.475 267.315 274.468 266.614 274.36C265.914 274.251 265.363 274.047 265.383 273.924C265.404 273.802 265.989 273.816 266.689 273.924C267.389 274.033 267.967 274.244 267.92 274.36Z" fill="#263238"/>
<path d="M309.265 240.379C307.118 240.383 304.978 240.605 302.876 241.043C304.667 239.863 306.338 238.51 307.864 237.003C308.109 236.716 308.237 236.348 308.222 235.972C308.208 235.595 308.052 235.238 307.785 234.971C307.519 234.705 307.161 234.549 306.785 234.534C306.408 234.52 306.04 234.648 305.754 234.893C304.238 236.414 302.881 238.085 301.704 239.881C302.138 237.78 302.364 235.641 302.377 233.496C302.377 233.099 302.219 232.719 301.939 232.438C301.658 232.158 301.278 232 300.881 232C300.484 232 300.103 232.158 299.823 232.438C299.542 232.719 299.384 233.099 299.384 233.496C299.386 235.643 299.607 237.784 300.043 239.886C298.865 238.093 297.511 236.422 296.003 234.898C295.869 234.741 295.703 234.614 295.518 234.524C295.332 234.434 295.13 234.384 294.924 234.376C294.718 234.368 294.512 234.403 294.32 234.478C294.128 234.553 293.954 234.667 293.808 234.813C293.662 234.959 293.548 235.133 293.473 235.325C293.398 235.517 293.363 235.723 293.371 235.929C293.379 236.135 293.429 236.337 293.519 236.523C293.609 236.708 293.736 236.874 293.893 237.008C295.414 238.523 297.085 239.88 298.881 241.058C296.78 240.623 294.641 240.397 292.496 240.384C292.099 240.384 291.719 240.542 291.438 240.823C291.158 241.103 291 241.484 291 241.881C291 242.278 291.158 242.658 291.438 242.939C291.719 243.219 292.099 243.377 292.496 243.377C294.643 243.373 296.784 243.151 298.886 242.714C297.094 243.893 295.423 245.246 293.898 246.754C293.741 246.888 293.614 247.053 293.524 247.239C293.434 247.424 293.384 247.626 293.376 247.832C293.368 248.039 293.403 248.244 293.478 248.436C293.553 248.628 293.667 248.802 293.813 248.948C293.959 249.094 294.133 249.208 294.325 249.283C294.517 249.359 294.723 249.393 294.929 249.385C295.135 249.377 295.337 249.327 295.523 249.237C295.708 249.147 295.874 249.02 296.008 248.864C297.523 247.342 298.88 245.671 300.058 243.876C299.623 245.976 299.397 248.115 299.384 250.26C299.384 250.657 299.542 251.038 299.823 251.318C300.103 251.599 300.484 251.756 300.881 251.756C301.278 251.756 301.658 251.599 301.939 251.318C302.219 251.038 302.377 250.657 302.377 250.26C302.373 248.113 302.151 245.973 301.714 243.871C302.895 245.661 304.248 247.332 305.754 248.859C305.888 249.015 306.053 249.142 306.239 249.232C306.424 249.322 306.626 249.373 306.833 249.38C307.039 249.388 307.244 249.354 307.436 249.278C307.628 249.203 307.802 249.089 307.948 248.943C308.094 248.797 308.208 248.623 308.283 248.431C308.359 248.239 308.393 248.034 308.385 247.828C308.378 247.621 308.327 247.419 308.237 247.234C308.147 247.048 308.02 246.883 307.864 246.749C306.342 245.233 304.671 243.876 302.876 242.699C304.976 243.133 307.115 243.359 309.26 243.372C309.657 243.372 310.038 243.214 310.318 242.934C310.599 242.653 310.756 242.273 310.756 241.876C310.756 241.479 310.599 241.098 310.318 240.818C310.038 240.537 309.657 240.379 309.26 240.379H309.265Z" fill="#E491FF"/>
<path opacity="0.5" d="M309.265 240.379C307.118 240.383 304.978 240.605 302.876 241.043C304.667 239.863 306.338 238.51 307.864 237.003C308.109 236.716 308.237 236.348 308.222 235.972C308.208 235.595 308.052 235.238 307.785 234.971C307.519 234.705 307.161 234.549 306.785 234.534C306.408 234.52 306.04 234.648 305.754 234.893C304.238 236.414 302.881 238.085 301.704 239.881C302.138 237.78 302.364 235.641 302.377 233.496C302.377 233.099 302.219 232.719 301.939 232.438C301.658 232.158 301.278 232 300.881 232C300.484 232 300.103 232.158 299.823 232.438C299.542 232.719 299.384 233.099 299.384 233.496C299.386 235.643 299.607 237.784 300.043 239.886C298.865 238.093 297.511 236.422 296.003 234.898C295.869 234.741 295.703 234.614 295.518 234.524C295.332 234.434 295.13 234.384 294.924 234.376C294.718 234.368 294.512 234.403 294.32 234.478C294.128 234.553 293.954 234.667 293.808 234.813C293.662 234.959 293.548 235.133 293.473 235.325C293.398 235.517 293.363 235.723 293.371 235.929C293.379 236.135 293.429 236.337 293.519 236.523C293.609 236.708 293.736 236.874 293.893 237.008C295.414 238.523 297.085 239.88 298.881 241.058C296.78 240.623 294.641 240.397 292.496 240.384C292.099 240.384 291.719 240.542 291.438 240.823C291.158 241.103 291 241.484 291 241.881C291 242.278 291.158 242.658 291.438 242.939C291.719 243.219 292.099 243.377 292.496 243.377C294.643 243.373 296.784 243.151 298.886 242.714C297.094 243.893 295.423 245.246 293.898 246.754C293.741 246.888 293.614 247.053 293.524 247.239C293.434 247.424 293.384 247.626 293.376 247.832C293.368 248.039 293.403 248.244 293.478 248.436C293.553 248.628 293.667 248.802 293.813 248.948C293.959 249.094 294.133 249.208 294.325 249.283C294.517 249.359 294.723 249.393 294.929 249.385C295.135 249.377 295.337 249.327 295.523 249.237C295.708 249.147 295.874 249.02 296.008 248.864C297.523 247.342 298.88 245.671 300.058 243.876C299.623 245.976 299.397 248.115 299.384 250.26C299.384 250.657 299.542 251.038 299.823 251.318C300.103 251.599 300.484 251.756 300.881 251.756C301.278 251.756 301.658 251.599 301.939 251.318C302.219 251.038 302.377 250.657 302.377 250.26C302.373 248.113 302.151 245.973 301.714 243.871C302.895 245.661 304.248 247.332 305.754 248.859C305.888 249.015 306.053 249.142 306.239 249.232C306.424 249.322 306.626 249.373 306.833 249.38C307.039 249.388 307.244 249.354 307.436 249.278C307.628 249.203 307.802 249.089 307.948 248.943C308.094 248.797 308.208 248.623 308.283 248.431C308.359 248.239 308.393 248.034 308.385 247.828C308.378 247.621 308.327 247.419 308.237 247.234C308.147 247.048 308.02 246.883 307.864 246.749C306.342 245.233 304.671 243.876 302.876 242.699C304.976 243.133 307.115 243.359 309.26 243.372C309.657 243.372 310.038 243.214 310.318 242.934C310.599 242.653 310.756 242.273 310.756 241.876C310.756 241.479 310.599 241.098 310.318 240.818C310.038 240.537 309.657 240.379 309.26 240.379H309.265Z" fill="white"/>
<path d="M302.836 241.871C302.866 242.261 302.776 242.652 302.58 242.991C302.384 243.33 302.09 243.603 301.737 243.773C301.384 243.943 300.988 244.002 300.6 243.944C300.213 243.885 299.852 243.711 299.565 243.445C299.278 243.178 299.077 242.831 298.99 242.449C298.903 242.067 298.933 241.668 299.076 241.303C299.219 240.938 299.469 240.625 299.793 240.404C300.117 240.183 300.499 240.065 300.891 240.065C301.388 240.047 301.872 240.228 302.237 240.566C302.601 240.904 302.817 241.374 302.836 241.871V241.871Z" fill="#E491FF"/>
<path opacity="0.2" d="M302.836 241.871C302.866 242.261 302.776 242.652 302.58 242.991C302.384 243.33 302.09 243.603 301.737 243.773C301.384 243.943 300.988 244.002 300.6 243.944C300.213 243.885 299.852 243.711 299.565 243.445C299.278 243.178 299.077 242.831 298.99 242.449C298.903 242.067 298.933 241.668 299.076 241.303C299.219 240.938 299.469 240.625 299.793 240.404C300.117 240.183 300.499 240.065 300.891 240.065C301.388 240.047 301.872 240.228 302.237 240.566C302.601 240.904 302.817 241.374 302.836 241.871V241.871Z" fill="white"/>
<path d="M271.319 271.193C269.989 271.195 268.662 271.333 267.36 271.604C268.47 270.873 269.505 270.034 270.451 269.1C270.603 268.923 270.682 268.695 270.673 268.461C270.664 268.228 270.567 268.007 270.402 267.841C270.237 267.676 270.016 267.58 269.782 267.571C269.549 267.561 269.321 267.641 269.143 267.793C268.204 268.735 267.363 269.771 266.633 270.884C266.903 269.582 267.043 268.257 267.051 266.927C267.051 266.681 266.953 266.446 266.779 266.272C266.605 266.098 266.369 266 266.123 266C265.877 266 265.642 266.098 265.468 266.272C265.294 266.446 265.196 266.681 265.196 266.927C265.197 268.258 265.334 269.584 265.604 270.887C264.874 269.776 264.035 268.741 263.1 267.796C263.017 267.699 262.915 267.62 262.8 267.564C262.685 267.509 262.559 267.477 262.432 267.472C262.304 267.468 262.177 267.489 262.058 267.536C261.939 267.582 261.831 267.653 261.74 267.743C261.65 267.834 261.579 267.942 261.533 268.061C261.486 268.18 261.464 268.307 261.469 268.435C261.474 268.563 261.506 268.688 261.561 268.803C261.617 268.918 261.696 269.02 261.793 269.103C262.735 270.043 263.771 270.884 264.884 271.613C263.582 271.344 262.257 271.204 260.927 271.196C260.681 271.196 260.446 271.294 260.272 271.468C260.098 271.642 260 271.877 260 272.123C260 272.369 260.098 272.605 260.272 272.779C260.446 272.953 260.681 273.051 260.927 273.051C262.258 273.048 263.584 272.911 264.887 272.64C263.777 273.37 262.741 274.209 261.796 275.143C261.699 275.226 261.62 275.329 261.564 275.444C261.509 275.559 261.477 275.684 261.472 275.812C261.468 275.939 261.489 276.067 261.536 276.186C261.582 276.305 261.653 276.413 261.743 276.503C261.834 276.594 261.942 276.664 262.061 276.711C262.18 276.758 262.307 276.779 262.435 276.774C262.563 276.769 262.688 276.738 262.803 276.682C262.918 276.627 263.02 276.548 263.103 276.451C264.043 275.508 264.884 274.472 265.613 273.36C265.344 274.662 265.204 275.987 265.196 277.316C265.196 277.562 265.294 277.798 265.468 277.972C265.642 278.146 265.877 278.244 266.123 278.244C266.369 278.244 266.605 278.146 266.779 277.972C266.953 277.798 267.051 277.562 267.051 277.316C267.048 275.986 266.911 274.659 266.64 273.357C267.371 274.466 268.21 275.501 269.143 276.448C269.226 276.545 269.329 276.624 269.444 276.679C269.559 276.735 269.684 276.766 269.812 276.771C269.94 276.776 270.067 276.755 270.186 276.708C270.305 276.661 270.413 276.591 270.503 276.5C270.594 276.41 270.664 276.302 270.711 276.183C270.758 276.064 270.779 275.936 270.774 275.809C270.769 275.681 270.738 275.556 270.682 275.441C270.627 275.326 270.548 275.223 270.451 275.14C269.508 274.201 268.472 273.36 267.36 272.63C268.662 272.9 269.987 273.039 271.316 273.048C271.562 273.048 271.798 272.95 271.972 272.776C272.146 272.602 272.244 272.366 272.244 272.12C272.244 271.874 272.146 271.638 271.972 271.465C271.798 271.291 271.562 271.193 271.316 271.193H271.319Z" fill="#E491FF"/>
<path opacity="0.5" d="M271.319 271.193C269.989 271.195 268.662 271.333 267.36 271.604C268.47 270.873 269.505 270.034 270.451 269.1C270.603 268.923 270.682 268.695 270.673 268.461C270.664 268.228 270.567 268.007 270.402 267.841C270.237 267.676 270.016 267.58 269.782 267.571C269.549 267.561 269.321 267.641 269.143 267.793C268.204 268.735 267.363 269.771 266.633 270.884C266.903 269.582 267.043 268.257 267.051 266.927C267.051 266.681 266.953 266.446 266.779 266.272C266.605 266.098 266.369 266 266.123 266C265.877 266 265.642 266.098 265.468 266.272C265.294 266.446 265.196 266.681 265.196 266.927C265.197 268.258 265.334 269.584 265.604 270.887C264.874 269.776 264.035 268.741 263.1 267.796C263.017 267.699 262.915 267.62 262.8 267.564C262.685 267.509 262.559 267.477 262.432 267.472C262.304 267.468 262.177 267.489 262.058 267.536C261.939 267.582 261.831 267.653 261.74 267.743C261.65 267.834 261.579 267.942 261.533 268.061C261.486 268.18 261.464 268.307 261.469 268.435C261.474 268.563 261.506 268.688 261.561 268.803C261.617 268.918 261.696 269.02 261.793 269.103C262.735 270.043 263.771 270.884 264.884 271.613C263.582 271.344 262.257 271.204 260.927 271.196C260.681 271.196 260.446 271.294 260.272 271.468C260.098 271.642 260 271.877 260 272.123C260 272.369 260.098 272.605 260.272 272.779C260.446 272.953 260.681 273.051 260.927 273.051C262.258 273.048 263.584 272.911 264.887 272.64C263.777 273.37 262.741 274.209 261.796 275.143C261.699 275.226 261.62 275.329 261.564 275.444C261.509 275.559 261.477 275.684 261.472 275.812C261.468 275.939 261.489 276.067 261.536 276.186C261.582 276.305 261.653 276.413 261.743 276.503C261.834 276.594 261.942 276.664 262.061 276.711C262.18 276.758 262.307 276.779 262.435 276.774C262.563 276.769 262.688 276.738 262.803 276.682C262.918 276.627 263.02 276.548 263.103 276.451C264.043 275.508 264.884 274.472 265.613 273.36C265.344 274.662 265.204 275.987 265.196 277.316C265.196 277.562 265.294 277.798 265.468 277.972C265.642 278.146 265.877 278.244 266.123 278.244C266.369 278.244 266.605 278.146 266.779 277.972C266.953 277.798 267.051 277.562 267.051 277.316C267.048 275.986 266.911 274.659 266.64 273.357C267.371 274.466 268.21 275.501 269.143 276.448C269.226 276.545 269.329 276.624 269.444 276.679C269.559 276.735 269.684 276.766 269.812 276.771C269.94 276.776 270.067 276.755 270.186 276.708C270.305 276.661 270.413 276.591 270.503 276.5C270.594 276.41 270.664 276.302 270.711 276.183C270.758 276.064 270.779 275.936 270.774 275.809C270.769 275.681 270.738 275.556 270.682 275.441C270.627 275.326 270.548 275.223 270.451 275.14C269.508 274.201 268.472 273.36 267.36 272.63C268.662 272.9 269.987 273.039 271.316 273.048C271.562 273.048 271.798 272.95 271.972 272.776C272.146 272.602 272.244 272.366 272.244 272.12C272.244 271.874 272.146 271.638 271.972 271.465C271.798 271.291 271.562 271.193 271.316 271.193H271.319Z" fill="white"/>
<path d="M267.336 272.117C267.354 272.359 267.298 272.601 267.177 272.811C267.055 273.022 266.873 273.19 266.654 273.296C266.436 273.401 266.19 273.438 265.95 273.402C265.71 273.365 265.486 273.258 265.308 273.092C265.13 272.927 265.006 272.712 264.952 272.475C264.898 272.239 264.917 271.991 265.005 271.765C265.094 271.539 265.249 271.345 265.45 271.208C265.65 271.071 265.887 270.998 266.13 270.998C266.438 270.987 266.738 271.099 266.964 271.309C267.19 271.518 267.324 271.809 267.336 272.117V272.117Z" fill="#E491FF"/>
<path opacity="0.2" d="M267.336 272.117C267.354 272.359 267.298 272.601 267.177 272.811C267.055 273.022 266.873 273.19 266.654 273.296C266.436 273.401 266.19 273.438 265.95 273.402C265.71 273.365 265.486 273.258 265.308 273.092C265.13 272.927 265.006 272.712 264.952 272.475C264.898 272.239 264.917 271.991 265.005 271.765C265.094 271.539 265.249 271.345 265.45 271.208C265.65 271.071 265.887 270.998 266.13 270.998C266.438 270.987 266.738 271.099 266.964 271.309C267.19 271.518 267.324 271.809 267.336 272.117V272.117Z" fill="white"/>
<path d="M209.226 102.224C211.109 97.5392 214.89 93.3368 219.82 92.2284C224.75 91.12 230.02 93.296 234.338 96.0364C238.656 98.7768 242.709 102.238 244.538 106.971C246.279 111.547 245.218 117.436 241.247 120.183C245.381 117.606 251.712 120.72 252.718 125.589C253.759 130.621 249.835 135.837 244.871 137.149C240.533 138.305 235.827 136.904 232.223 134.178C233.687 135.854 234.583 137.95 234.785 140.167C234.986 142.383 234.483 144.607 233.345 146.52C230.625 150.865 224.927 152.85 219.942 151.722C214.958 150.593 210.837 146.724 208.756 142.059L206.954 117.103C207.043 112.071 207.342 106.91 209.226 102.224Z" fill="#263238"/>
<path d="M212.597 113.676C217.398 115.233 218.377 119.116 219.397 122.359C221.539 129.329 219.132 139.645 215.229 145.806C211.326 151.966 207.069 155.101 199.834 156.142C199.598 145.076 199.371 134.01 199.154 122.944L212.597 113.676Z" fill="#D994F3"/>
<path d="M215.309 132.736C216.887 130.553 217.648 127.886 217.46 125.199C217.273 122.512 216.148 119.977 214.282 118.034C216.383 115.389 215.642 111.323 213.493 108.712C211.345 106.1 208.189 104.598 205.129 103.183C203.443 95.4584 194.773 90.0252 187.096 91.8816C183.09 85.9996 174.563 85.0816 167.729 87.0672C166.063 87.55 164.397 88.1824 162.656 88.1756C161.384 88.0818 160.119 87.9069 158.869 87.652C151.919 86.7136 145.024 91.6096 142.311 98.0764C141.951 99.1398 141.455 100.152 140.835 101.089C139.938 102.252 138.564 102.932 137.401 103.809C136.145 104.791 135.115 106.033 134.382 107.449C133.648 108.866 133.229 110.423 133.151 112.016C133.036 114.736 133.892 117.586 132.757 120.034C132.186 121.264 131.159 122.257 130.717 123.536C129.432 127.242 133.539 131.016 132.757 134.885C132.6 135.667 132.247 136.401 132.029 137.17C131.594 138.755 131.744 140.445 132.451 141.93C132.995 143.072 133.879 144.112 133.954 145.377C134.015 146.329 133.586 147.24 133.396 148.186C132.927 150.484 137.884 159.344 139.87 160.596L199.213 161.126C201.454 160.623 203.482 159.437 205.02 157.732C206.557 156.027 207.527 153.886 207.795 151.606C207.772 150.84 207.965 150.084 208.352 149.423C208.813 148.963 209.364 148.604 209.971 148.369C213.793 146.329 214.255 141.073 213.854 136.748C213.745 136.15 213.745 135.537 213.854 134.939C214.182 134.113 214.677 133.362 215.309 132.736Z" fill="#263238"/>
<path d="M198.305 132.818C198.482 122.318 191.893 110.248 181.462 105.114C174.886 101.878 169.752 101.857 166.298 101.449C161.441 100.985 156.557 102.01 152.296 104.387C149.026 105.155 137.044 116.13 136.418 128.044C135.738 141.27 135.405 157.454 137.098 167.3C140.458 187.109 155.69 189.468 155.69 189.468L154.275 222.394L183.515 246.384L194.912 208.304L198.305 132.818Z" fill="#FFCCB0"/>
<path d="M155.666 189.468C165.039 189.518 174.242 186.969 182.254 182.104C182.254 182.104 175.325 196.16 155.455 194.521L155.666 189.468Z" fill="#FCA983"/>
<path d="M195.31 151.64C195.31 150.164 196.969 146.662 198.425 146.418C202.314 145.738 209.305 146.01 209.509 155.904C209.747 169.429 196.119 166.872 196.085 166.484C196.051 166.097 195.351 156.76 195.31 151.64Z" fill="#FFCCB0"/>
<path d="M199.733 161.493C199.794 161.452 199.978 161.656 200.379 161.833C200.944 162.061 201.575 162.061 202.14 161.833C203.555 161.289 204.724 158.998 204.745 156.556C204.758 155.398 204.514 154.25 204.031 153.197C203.896 152.777 203.661 152.395 203.346 152.086C203.03 151.777 202.645 151.549 202.222 151.422C201.952 151.362 201.669 151.397 201.421 151.52C201.173 151.644 200.976 151.85 200.862 152.102C200.692 152.483 200.78 152.782 200.712 152.782C200.644 152.782 200.413 152.565 200.515 152C200.584 151.664 200.766 151.361 201.032 151.144C201.402 150.859 201.867 150.728 202.331 150.776C203.371 150.831 204.33 151.776 204.826 152.816C205.424 153.979 205.727 155.27 205.71 156.577C205.669 159.297 204.35 161.874 202.371 162.472C202.01 162.585 201.628 162.614 201.254 162.559C200.88 162.504 200.522 162.365 200.209 162.153C199.767 161.84 199.692 161.52 199.733 161.493Z" fill="#FCA983"/>
<path d="M133.513 126.038C133.948 121.122 135.899 116.464 138.273 112.139C139.911 109.147 141.802 106.223 144.393 103.979C146.622 102.19 149.08 100.708 151.703 99.5724C158.503 96.3628 166.037 93.636 173.354 95.2816C177.277 96.1656 180.834 98.2532 184.234 100.348C186.923 101.86 189.432 103.671 191.714 105.747C193.612 107.683 195.249 109.86 196.583 112.22C199.853 117.776 202.165 123.998 202.607 130.431C203.049 136.864 207.925 142.562 204.151 147.798C203.859 148.199 197.133 149.593 196.671 149.777C195.576 150.212 194.373 149.029 194.386 147.852C194.4 146.676 195.202 145.663 196.073 144.874C194.4 144.813 193.251 142.95 193.353 141.284C193.455 139.618 194.447 138.135 195.44 136.789C195.585 136.624 195.685 136.425 195.733 136.211C195.801 135.64 195.155 135.286 194.658 134.994C192.251 133.572 191.979 129.608 194.175 127.867C193.392 127.64 192.662 127.259 192.028 126.746C191.393 126.233 190.868 125.598 190.483 124.879C190.098 124.16 189.86 123.371 189.785 122.559C189.709 121.746 189.796 120.927 190.041 120.149C190.173 119.923 190.258 119.673 190.292 119.414C190.326 119.155 190.307 118.892 190.238 118.64C190.014 118.191 189.456 118.048 188.973 117.905C187.202 117.318 185.702 116.112 184.748 114.508C183.794 112.905 183.449 111.011 183.778 109.174C181.904 109.36 180.012 109.275 178.161 108.922C177.238 108.737 176.365 108.356 175.601 107.805C174.837 107.254 174.201 106.545 173.735 105.726C173.134 106.811 172.268 107.726 171.217 108.385C170.167 109.044 168.966 109.425 167.728 109.493C166.49 109.561 165.254 109.314 164.138 108.774C163.022 108.234 162.061 107.419 161.345 106.406C158.177 106.702 154.985 106.207 152.056 104.965C151.683 106.434 150.947 107.786 149.916 108.896C148.884 110.007 147.591 110.842 146.154 111.323C145.596 111.506 144.957 111.676 144.685 112.2C144.549 112.55 144.506 112.93 144.563 113.302C144.658 115.185 143.373 116.022 142.332 117.572C141.292 119.122 139.476 121.502 137.661 120.972C137.858 124.188 136.137 126.534 133.424 128.268L133.513 126.038Z" fill="#263238"/>
<path d="M130.719 123.556C130.878 123.034 131.119 122.54 131.433 122.094C131.719 121.645 132.113 121.115 132.494 120.442C132.916 119.658 133.167 118.793 133.229 117.905C133.295 116.79 133.265 115.67 133.14 114.56C132.984 113.225 133.007 111.876 133.208 110.548C133.645 108.167 134.837 105.99 136.608 104.339C137.274 103.749 137.986 103.212 138.737 102.734C139.508 102.249 140.197 101.643 140.777 100.939C141.304 100.145 141.727 99.2854 142.035 98.3824C143.649 94.3769 146.638 91.0784 150.467 89.08C151.499 88.5459 152.587 88.1264 153.71 87.8288C154.871 87.5399 156.063 87.3937 157.26 87.3936C157.869 87.4062 158.477 87.4493 159.082 87.5228C159.694 87.6112 160.286 87.7336 160.891 87.8356C162.081 88.0872 163.311 88.0872 164.502 87.8356C165.712 87.584 166.895 87.1556 168.14 86.8156C169.395 86.4859 170.676 86.2585 171.968 86.1356C173.285 85.9983 174.611 85.9732 175.933 86.0608C177.278 86.1566 178.61 86.3844 179.911 86.7408C182.593 87.4532 184.986 88.9839 186.758 91.12L187.261 91.8L187.051 91.7184C190.983 90.9353 195.066 91.6858 198.464 93.8161C201.861 95.9464 204.314 99.2952 205.322 103.176L205.213 103.04C206.85 103.761 208.439 104.583 209.973 105.502C211.474 106.398 212.797 107.562 213.877 108.936C214.887 110.294 215.508 111.902 215.672 113.587C215.86 115.219 215.412 116.861 214.421 118.17V117.946C216.254 119.809 217.375 122.257 217.589 124.862C217.835 127.192 217.36 129.541 216.229 131.594C215.965 132.067 215.667 132.522 215.339 132.954C215.01 133.339 214.703 133.743 214.421 134.164C214.151 134.57 213.989 135.038 213.951 135.524C213.93 135.991 213.946 136.46 213.999 136.925C214.163 138.634 214.128 140.357 213.897 142.059C213.724 143.439 213.283 144.772 212.598 145.982C212.085 146.87 211.372 147.626 210.517 148.192C209.837 148.662 209.205 148.872 208.865 149.097C208.686 149.216 208.522 149.355 208.375 149.512C208.494 149.33 208.649 149.175 208.831 149.056C209.171 148.784 209.79 148.58 210.456 148.111C211.294 147.54 211.992 146.787 212.496 145.908C213.154 144.707 213.574 143.391 213.734 142.032C213.948 140.344 213.966 138.637 213.788 136.945C213.729 136.467 213.71 135.985 213.734 135.504C213.777 134.987 213.947 134.489 214.23 134.055C214.519 133.624 214.83 133.209 215.162 132.811C215.479 132.394 215.765 131.956 216.019 131.498C217.104 129.49 217.55 127.198 217.297 124.93C217.078 122.399 215.982 120.025 214.196 118.218L214.087 118.116L214.183 117.994C215.115 116.751 215.531 115.197 215.345 113.655C215.186 112.035 214.583 110.489 213.605 109.188C212.551 107.855 211.263 106.725 209.803 105.856C208.269 104.948 206.679 104.137 205.043 103.428L204.955 103.387V103.292C203.967 99.5165 201.576 96.2606 198.268 94.1892C194.961 92.1178 190.987 91.3872 187.159 92.1468L187.03 92.1808L186.942 92.0652L186.452 91.426C184.738 89.3377 182.416 87.8355 179.809 87.1284C178.537 86.778 177.234 86.5503 175.919 86.4484C174.621 86.3621 173.317 86.3848 172.023 86.5164C170.753 86.6419 169.495 86.8693 168.262 87.1964C167.031 87.5092 165.841 87.958 164.597 88.2164C163.976 88.3506 163.342 88.4213 162.707 88.4272C162.079 88.4182 161.454 88.3568 160.837 88.2436C160.231 88.1348 159.633 88.0124 159.041 87.924C158.455 87.8508 157.865 87.8076 157.273 87.7948C156.107 87.7948 154.945 87.9341 153.812 88.2096C152.715 88.5 151.653 88.9081 150.643 89.4268C146.871 91.3823 143.922 94.6211 142.327 98.5592C142.007 99.4881 141.566 100.371 141.015 101.184C140.414 101.911 139.7 102.535 138.9 103.034C138.157 103.497 137.454 104.023 136.799 104.604C136.189 105.163 135.646 105.791 135.18 106.474C134.322 107.732 133.731 109.154 133.446 110.65C133.238 111.958 133.203 113.289 133.344 114.607C133.464 115.737 133.482 116.874 133.399 118.007C133.323 118.913 133.054 119.792 132.61 120.584C132.215 121.264 131.807 121.781 131.515 122.223C131.288 122.556 131.084 122.904 130.903 123.264C130.774 123.427 130.726 123.556 130.719 123.556Z" fill="#455A64"/>
<path d="M180.718 88.9644C180.718 88.9644 180.358 88.7604 179.698 88.4408C178.77 87.9951 177.771 87.7122 176.747 87.6044C175.233 87.4308 173.7 87.6655 172.307 88.2844C170.611 89.0605 169.205 90.3529 168.288 91.9768C168.005 92.4621 167.777 92.9775 167.608 93.5136C167.52 93.745 167.484 93.9929 167.503 94.2397C167.522 94.4865 167.595 94.7261 167.717 94.9416L168.05 95.3972L167.506 95.2476C166.096 94.8711 164.595 95.0614 163.324 95.778C162.314 96.3513 161.517 97.2365 161.053 98.3008C160.738 99.0039 160.563 99.7613 160.536 100.531C160.536 101.075 160.57 101.374 160.536 101.374C160.502 101.374 160.536 101.306 160.468 101.164C160.425 100.955 160.4 100.744 160.393 100.531C160.366 99.7332 160.508 98.9386 160.808 98.1988C161.267 97.0594 162.089 96.1034 163.147 95.4788C163.813 95.089 164.549 94.8343 165.313 94.7293C166.077 94.6243 166.855 94.671 167.601 94.8668L167.39 95.1728C167.229 94.9119 167.129 94.618 167.097 94.3131C167.066 94.0082 167.103 93.7001 167.207 93.4116C167.37 92.8432 167.598 92.2955 167.887 91.7796C168.84 90.077 170.319 88.7291 172.103 87.9376C173.56 87.3085 175.162 87.092 176.734 87.312C177.784 87.4491 178.799 87.7837 179.726 88.298C179.978 88.432 180.219 88.5867 180.446 88.7604C180.65 88.8828 180.725 88.9508 180.718 88.9644Z" fill="#455A64"/>
<path d="M202.793 104.319C202.663 104.503 202.504 104.666 202.324 104.802C201.857 105.217 201.347 105.58 200.801 105.883C199.966 106.356 199.037 106.639 198.081 106.712C196.863 106.822 195.648 106.467 194.681 105.72L194.98 105.672L194.585 106.23C194.443 106.413 194.286 106.59 194.13 106.767C193.205 107.745 192.05 108.476 190.771 108.895C189.734 109.247 188.64 109.395 187.547 109.33C186.816 109.279 186.097 109.121 185.412 108.861C185.169 108.77 184.94 108.644 184.732 108.487C185.657 108.791 186.617 108.976 187.588 109.038C188.639 109.063 189.685 108.895 190.675 108.542C191.884 108.127 192.976 107.427 193.858 106.502C194.007 106.332 194.157 106.168 194.293 105.998L194.667 105.475L194.796 105.284L194.966 105.42C195.844 106.105 196.943 106.442 198.053 106.366C198.958 106.313 199.841 106.069 200.644 105.652C202.052 104.931 202.745 104.258 202.793 104.319Z" fill="#455A64"/>
<path d="M210.039 116.804C210.039 116.804 210.039 116.892 210.039 117.055C209.976 117.295 209.877 117.524 209.747 117.735C209.231 118.476 208.457 118.997 207.577 119.197C206.277 119.443 204.934 119.308 203.708 118.81C202.981 118.572 202.266 118.297 201.566 117.987C200.76 117.66 200.093 117.061 199.683 116.294L199.601 116.083L199.921 116.171C198.721 117.182 197.375 118.005 195.929 118.612C194.709 119.104 193.374 119.238 192.08 119C191.221 118.863 190.413 118.504 189.734 117.96C189.553 117.81 189.387 117.644 189.238 117.463C189.143 117.334 189.095 117.266 189.109 117.252C189.122 117.239 189.347 117.49 189.829 117.83C190.513 118.307 191.301 118.613 192.128 118.721C193.356 118.891 194.607 118.721 195.745 118.232C197.147 117.618 198.453 116.805 199.621 115.818L199.832 115.648L199.941 115.913C199.941 115.974 199.982 116.035 200.009 116.096C200.385 116.772 200.98 117.3 201.695 117.592C202.375 117.919 203.11 118.177 203.783 118.422C204.943 118.914 206.216 119.074 207.462 118.884C208.291 118.72 209.036 118.267 209.563 117.606C209.745 117.353 209.904 117.084 210.039 116.804V116.804Z" fill="#455A64"/>
<path d="M141.957 143.086C142.257 143.426 144.201 142.086 146.887 142.174C149.573 142.263 151.511 143.677 151.811 143.358C151.96 143.215 151.661 142.616 150.825 141.998C149.685 141.152 148.313 140.677 146.894 140.638C145.495 140.586 144.116 140.981 142.957 141.766C142.107 142.358 141.808 142.936 141.957 143.086Z" fill="#263238"/>
<path d="M168.357 144.996C168.69 145.296 170.478 143.766 173.164 143.582C175.85 143.398 177.924 144.602 178.183 144.262C178.319 144.106 177.965 143.541 177.054 142.977C175.838 142.251 174.427 141.921 173.015 142.032C171.617 142.128 170.285 142.666 169.214 143.568C168.432 144.248 168.194 144.84 168.357 144.996Z" fill="#263238"/>
<path d="M157.865 156.856C157.865 156.706 156.22 156.366 153.52 155.931C152.84 155.836 152.16 155.679 152.085 155.203C152.011 154.727 152.249 153.972 152.609 153.163L154.812 147.995C157.872 140.638 160.116 134.572 159.817 134.45C159.518 134.327 156.798 140.202 153.731 147.56C152.997 149.376 152.289 151.103 151.616 152.762C151.331 153.537 150.855 154.408 151.174 155.448C151.266 155.693 151.412 155.914 151.602 156.094C151.792 156.274 152.02 156.409 152.269 156.488C152.646 156.606 153.037 156.672 153.432 156.686C156.159 156.944 157.852 157.012 157.865 156.856Z" fill="#263238"/>
<path d="M162.034 160.874C163.04 161.058 165.325 162.425 165.917 163.526C166.508 164.628 167.277 166.355 166.705 167.355C166.209 168.212 162.578 167.151 161.048 166.899C160.368 166.784 158.607 167.62 158.369 166.736L157.947 163.594C157.886 162.126 158.851 161.48 159.851 161.072C160.545 160.798 161.302 160.73 162.034 160.874V160.874Z" fill="#FCA983"/>
<path d="M181.787 129.989C181.528 129.254 178.835 129.588 175.667 129.186C172.498 128.785 169.961 127.901 169.547 128.554C169.356 128.867 169.798 129.56 170.825 130.274C172.193 131.154 173.744 131.71 175.36 131.9C176.975 132.09 178.613 131.908 180.148 131.369C181.311 130.914 181.882 130.342 181.787 129.989Z" fill="#263238"/>
<path d="M153.585 126.018C152.952 125.494 150.926 126.439 148.369 126.847C145.812 127.255 143.609 127.14 143.188 127.847C143.018 128.187 143.446 128.744 144.48 129.207C145.883 129.728 147.403 129.852 148.872 129.567C150.344 129.337 151.723 128.704 152.857 127.738C153.666 126.942 153.87 126.276 153.585 126.018Z" fill="#263238"/>
<path d="M159.287 166.954C160.285 167.025 161.277 167.159 162.258 167.355C162.74 167.476 163.213 167.63 163.673 167.817C164.227 168.102 164.824 168.293 165.441 168.382C165.842 168.416 166.242 168.3 166.563 168.055C166.875 167.8 167.099 167.453 167.202 167.062C167.412 166.31 167.359 165.509 167.052 164.791C166.769 164.11 166.371 163.482 165.876 162.935C165.438 162.404 164.919 161.945 164.339 161.575C163.36 160.946 162.218 160.617 161.055 160.63C160.281 160.638 159.521 160.831 158.838 161.194C158.362 161.446 158.158 161.663 158.158 161.697C158.158 161.731 158.45 161.609 158.933 161.446C159.606 161.203 160.32 161.097 161.034 161.133C162.083 161.185 163.097 161.527 163.965 162.119C164.475 162.465 164.933 162.882 165.325 163.356C165.758 163.853 166.11 164.415 166.365 165.022C166.612 165.595 166.664 166.233 166.515 166.838C166.474 167.088 166.343 167.315 166.146 167.475C165.949 167.635 165.701 167.718 165.447 167.708C164.899 167.634 164.365 167.479 163.863 167.246C163.365 167.068 162.853 166.931 162.333 166.838C160.456 166.518 159.266 166.879 159.287 166.954Z" fill="#263238"/>
<path d="M176.945 120.02C176.945 120.02 176.945 119.836 176.789 119.51C176.572 119.048 176.291 118.62 175.953 118.238C175.405 117.637 174.744 117.149 174.008 116.804C173.017 116.341 171.918 116.162 170.832 116.287C170.178 116.341 169.552 116.577 169.023 116.967C168.713 117.192 168.476 117.505 168.343 117.864C168.277 118.061 168.25 118.268 168.266 118.475C168.281 118.682 168.337 118.883 168.432 119.068C168.635 119.426 168.933 119.72 169.293 119.919C169.653 120.118 170.061 120.214 170.472 120.197C171.27 120.18 172.055 119.994 172.777 119.653C173.56 119.307 174.264 118.807 174.849 118.181C175.433 117.556 175.885 116.819 176.177 116.015C176.469 115.139 176.551 114.206 176.415 113.293C176.279 112.38 175.93 111.511 175.395 110.758C174.838 110.014 174.097 109.429 173.244 109.06C172.391 108.692 171.456 108.553 170.533 108.657C169.637 108.733 168.789 109.092 168.112 109.684C167.776 109.983 167.513 110.355 167.344 110.772C167.179 111.21 167.179 111.694 167.344 112.132C167.518 112.549 167.82 112.899 168.207 113.132C168.552 113.346 168.932 113.498 169.329 113.58C170.066 113.744 170.83 113.744 171.567 113.58C172.88 113.275 174.034 112.492 174.803 111.384C175.422 110.467 175.705 109.365 175.606 108.263C175.542 107.446 175.291 106.655 174.871 105.951C174.608 105.51 174.272 105.117 173.879 104.788C173.607 104.577 173.443 104.489 173.43 104.509C173.893 104.983 174.295 105.513 174.627 106.087C174.979 106.767 175.176 107.517 175.205 108.283C175.263 109.286 174.977 110.279 174.395 111.098C173.676 112.075 172.624 112.755 171.437 113.009C170.79 113.149 170.12 113.149 169.472 113.009C169.152 112.963 168.848 112.841 168.584 112.655C168.321 112.468 168.105 112.221 167.956 111.935C167.879 111.614 167.898 111.277 168.012 110.968C168.126 110.658 168.329 110.389 168.595 110.194C169.172 109.711 169.885 109.419 170.635 109.358C171.436 109.272 172.245 109.396 172.983 109.718C173.721 110.04 174.362 110.548 174.844 111.194C175.31 111.855 175.614 112.617 175.732 113.418C175.851 114.219 175.779 115.036 175.524 115.804C175.27 116.521 174.875 117.179 174.362 117.741C173.85 118.303 173.23 118.756 172.539 119.075C171.902 119.386 171.207 119.56 170.499 119.585C170.2 119.606 169.902 119.546 169.635 119.409C169.369 119.272 169.146 119.065 168.989 118.81C168.875 118.567 168.851 118.291 168.924 118.032C168.996 117.774 169.159 117.55 169.384 117.402C169.825 117.053 170.355 116.834 170.914 116.77C171.912 116.625 172.93 116.757 173.858 117.15C174.567 117.451 175.215 117.88 175.769 118.415C176.214 118.909 176.608 119.447 176.945 120.02V120.02Z" fill="#263238"/>
<path d="M166.923 149.376C166.97 149.478 167.732 149.165 168.997 148.866C169.736 148.698 170.486 148.58 171.241 148.512C172.164 148.434 173.092 148.434 174.015 148.512C174.935 148.617 175.844 148.797 176.735 149.049C177.464 149.263 178.175 149.531 178.863 149.852C180.04 150.396 180.72 150.858 180.788 150.763C180.856 150.668 180.257 150.083 179.095 149.403C178.407 149.007 177.683 148.679 176.932 148.424C175.081 147.795 173.112 147.596 171.173 147.839C170.387 147.936 169.613 148.109 168.861 148.356C167.603 148.825 166.923 149.301 166.923 149.376Z" fill="#FCA983"/>
<path d="M110.633 329.603L118.453 309.917L113.441 280.677L112.081 263.398C112.333 252.253 113.278 243.644 117.882 233.478L132.162 198.166L149.624 202.926C150.086 200.681 150.829 198.504 151.834 196.445C155.098 190.244 197.292 192.365 200.019 194.575C201.753 195.996 202.61 201.11 203.004 204.646L217.685 204.571L234.984 249.03C234.434 250.254 223.764 264.5 223.764 264.5L213.163 323.095L216.563 329.215L110.633 329.603Z" fill="#D994F3"/>
<path d="M196.163 211.426C196.276 211.212 196.358 210.983 196.407 210.746C196.59 210.12 196.738 209.484 196.849 208.842C197.598 204.571 197.139 200.176 195.523 196.153C195.283 195.548 195.008 194.958 194.701 194.385C194.605 194.164 194.479 193.958 194.327 193.773C194.272 193.773 194.735 194.711 195.292 196.248C196.754 200.261 197.203 204.573 196.598 208.801C196.387 210.426 196.122 211.412 196.163 211.426Z" fill="#263238"/>
<path d="M184.487 212.017C184.581 211.781 184.645 211.535 184.678 211.283C184.78 210.807 184.895 210.106 185.004 209.243C185.273 206.986 185.391 204.715 185.358 202.443C185.358 199.784 185.188 197.384 185.065 195.643L184.895 193.603C184.891 193.35 184.854 193.098 184.787 192.855C184.758 193.106 184.758 193.359 184.787 193.61C184.787 194.099 184.787 194.8 184.841 195.65C184.895 197.39 185.011 199.791 185.031 202.45C185.062 204.719 184.978 206.989 184.78 209.25C184.603 210.943 184.433 212.004 184.487 212.017Z" fill="#263238"/>
<path d="M171.887 209.828C171.9 208.97 171.868 208.112 171.791 207.257C171.681 205.196 171.681 203.13 171.791 201.069C171.917 199.008 172.215 196.961 172.682 194.949C173.043 193.412 173.362 192.481 173.301 192.46C173.182 192.658 173.088 192.871 173.022 193.093C172.796 193.681 172.601 194.28 172.437 194.888C171.895 196.888 171.56 198.939 171.438 201.008C171.324 203.082 171.358 205.161 171.54 207.23C171.608 208.026 171.683 208.665 171.751 209.107C171.759 209.352 171.805 209.596 171.887 209.828Z" fill="#263238"/>
<path d="M160.045 211.426C160.106 211.426 159.753 210.419 159.365 208.78C158.869 206.647 158.688 204.452 158.828 202.266C158.992 200.084 159.487 197.941 160.297 195.908C160.929 194.344 161.439 193.433 161.378 193.399C161.219 193.588 161.084 193.796 160.977 194.018C160.638 194.597 160.333 195.197 160.065 195.813C159.171 197.85 158.635 200.026 158.481 202.246C158.326 204.465 158.542 206.694 159.12 208.842C159.288 209.49 159.495 210.128 159.739 210.752C159.814 210.988 159.916 211.214 160.045 211.426Z" fill="#263238"/>
<path d="M148.676 210.453C148.833 209.783 148.935 209.1 148.982 208.413C149.138 207.162 149.349 205.428 149.757 203.551C150.165 201.674 150.695 200.008 151.076 198.791C151.316 198.15 151.504 197.49 151.641 196.819C151.318 197.425 151.05 198.057 150.838 198.71C150.248 200.26 149.771 201.851 149.41 203.47C149.069 205.093 148.842 206.738 148.73 208.393C148.647 209.076 148.628 209.766 148.676 210.453V210.453Z" fill="#263238"/>
<path d="M219.851 134.137L218.844 127.16C218.844 127.16 218.586 121.917 219.851 119.299C221.116 116.681 219.545 115.28 216.403 117.722C213.262 120.163 212.908 122.264 212.908 122.264C212.908 122.264 208.189 109.16 206.441 105.672C204.694 102.184 200.151 95.88 200.151 95.88C200.151 95.88 192.991 84.8776 192.467 84.7008C191.944 84.524 190.72 84.524 191.243 86.4484L188.448 84.626C188.448 84.626 185.307 85.9248 187.578 90.1136C189.849 94.3024 192.814 100.422 192.814 100.422L192.991 103.394L184.953 93.6088C184.953 93.6088 181.465 92.038 182.682 96.2268C183.899 100.416 188.122 107.059 188.122 107.059L190.216 117.715C189.815 120.684 189.933 123.7 190.563 126.63C191.617 131.519 198.587 145.86 202.871 147.247C207.155 148.634 219.851 134.137 219.851 134.137Z" fill="#FFCCB0"/>
<path d="M219.852 134.137L219.669 134.327L219.145 134.892C218.683 135.388 217.989 136.122 217.105 137.068C216.221 138.013 215.065 139.162 213.705 140.468C212.136 141.965 210.486 143.375 208.762 144.69C207.75 145.466 206.663 146.138 205.518 146.696C204.913 146.995 204.254 147.168 203.58 147.206C202.886 147.166 202.226 146.89 201.71 146.424C200.558 145.431 199.545 144.287 198.698 143.024C197.758 141.697 196.888 140.322 196.093 138.904C194.334 135.81 192.825 132.581 191.578 129.248C191.244 128.36 190.969 127.451 190.755 126.528C190.558 125.58 190.412 124.622 190.32 123.658C190.117 121.669 190.149 119.663 190.415 117.681V117.626C189.735 114.226 189.055 110.656 188.328 106.964C186.832 104.589 185.47 102.133 184.248 99.6064C183.621 98.3232 183.123 96.9817 182.758 95.6012C182.68 95.2602 182.648 94.9103 182.663 94.5608C182.658 94.4016 182.686 94.2431 182.745 94.0955C182.805 93.9479 182.895 93.8145 183.01 93.704C183.276 93.5209 183.602 93.4478 183.921 93.5C184.271 93.5344 184.613 93.6239 184.934 93.7652L184.866 93.7108L192.904 103.496L193.251 103.918L193.217 103.374C193.217 103.136 193.217 102.884 193.176 102.626C193.128 101.884 193.088 101.143 193.04 100.402L188.96 92.31L187.947 90.3244C187.777 89.9912 187.627 89.6444 187.471 89.3452C187.331 89.0157 187.222 88.6743 187.144 88.3252C186.966 87.6515 186.999 86.9394 187.24 86.2852C187.503 85.6557 187.986 85.1434 188.6 84.8436H188.436L191.231 86.6592L191.605 86.904L191.401 86.36C191.265 85.8636 191.184 85.2584 191.49 84.9388C191.576 84.866 191.678 84.8126 191.787 84.7821C191.896 84.7516 192.01 84.7447 192.122 84.762H192.299H192.387C192.476 84.8527 192.56 84.948 192.639 85.0476C193.319 85.9044 193.924 86.8088 194.543 87.6928C195.767 89.4744 196.943 91.2424 198.099 92.99C198.67 93.8604 199.242 94.724 199.799 95.5808C200.357 96.4376 200.976 97.2536 201.547 98.0832C202.689 99.7356 203.784 101.374 204.79 103.013C205.294 103.829 205.776 104.652 206.198 105.482C206.62 106.311 207.041 107.27 207.381 108.12C208.061 109.806 208.741 111.472 209.36 113.098C210.611 116.341 211.747 119.415 212.794 122.284L212.93 122.665L213.032 122.264C213.342 121.251 213.877 120.322 214.596 119.544C215.261 118.783 216.009 118.098 216.826 117.504C217.533 116.895 218.43 116.551 219.363 116.532C219.568 116.557 219.76 116.651 219.907 116.797C220.04 116.951 220.127 117.139 220.158 117.341C220.217 117.759 220.168 118.185 220.016 118.578C219.886 118.973 219.696 119.354 219.546 119.748C219.409 120.13 219.295 120.521 219.206 120.918C219.05 121.663 218.939 122.417 218.873 123.175C218.758 124.484 218.729 125.799 218.785 127.112C219.125 129.384 219.383 131.124 219.567 132.308L219.771 133.668C219.818 133.967 219.852 134.123 219.852 134.123C219.852 134.123 219.852 133.974 219.805 133.674C219.757 133.375 219.71 132.926 219.628 132.314L218.948 127.085C218.904 125.781 218.945 124.475 219.07 123.175C219.175 121.598 219.569 120.054 220.233 118.619C220.403 118.187 220.457 117.718 220.39 117.259C220.361 117.007 220.257 116.77 220.09 116.579C219.905 116.4 219.666 116.285 219.41 116.253C218.413 116.249 217.448 116.604 216.69 117.252C215.858 117.846 215.094 118.531 214.412 119.292C213.661 120.099 213.103 121.067 212.78 122.121H213.018C211.985 119.245 210.856 116.164 209.618 112.914C208.993 111.289 208.347 109.623 207.646 107.923C207.293 107.073 206.926 106.216 206.504 105.366C206.082 104.516 205.586 103.7 205.083 102.87C204.076 101.225 202.982 99.5792 201.846 97.92L200.105 95.4244L198.405 92.8268C197.258 91.0814 196.075 89.3135 194.856 87.5228C194.237 86.632 193.625 85.7344 192.938 84.8572C192.848 84.7417 192.75 84.6327 192.646 84.5308C192.603 84.4921 192.555 84.46 192.503 84.4356H192.387C192.314 84.4154 192.239 84.4018 192.163 84.3948C192.001 84.3726 191.837 84.3854 191.681 84.4323C191.525 84.4792 191.381 84.5592 191.258 84.6668C191.148 84.7861 191.064 84.9266 191.01 85.0798C190.956 85.233 190.934 85.3956 190.946 85.5576C190.95 85.8499 190.994 86.1403 191.075 86.4212L191.333 86.2376L188.538 84.4152L188.457 84.3608L188.375 84.4016C187.673 84.7319 187.118 85.311 186.818 86.0268C186.546 86.7491 186.506 87.5381 186.702 88.2844C186.788 88.6507 186.901 89.0099 187.042 89.3588C187.206 89.6988 187.369 90.0388 187.539 90.372L188.545 92.3508L192.625 100.429V100.361C192.673 101.102 192.714 101.844 192.761 102.585C192.761 102.843 192.761 103.095 192.802 103.333L193.115 103.21C190.395 99.858 187.675 96.56 185.077 93.432H185.043C184.686 93.2815 184.307 93.1896 183.921 93.16C183.51 93.0978 183.091 93.1978 182.752 93.4388C182.6 93.5809 182.48 93.7527 182.398 93.9434C182.316 94.1341 182.274 94.3396 182.276 94.5472C182.267 94.9264 182.303 95.3054 182.384 95.676C182.754 97.0828 183.262 98.4495 183.901 99.756C185.12 102.295 186.482 104.763 187.981 107.148V107.093L190.041 117.735V117.674C189.772 119.683 189.74 121.716 189.946 123.733C190.046 124.708 190.196 125.677 190.395 126.636C190.621 127.559 190.903 128.467 191.238 129.356C192.499 132.702 194.025 135.943 195.801 139.046C196.608 140.468 197.487 141.847 198.432 143.181C199.296 144.449 200.331 145.593 201.506 146.581C202.069 147.085 202.79 147.379 203.546 147.41C204.255 147.365 204.948 147.18 205.586 146.866C206.744 146.299 207.843 145.615 208.864 144.826C210.585 143.495 212.231 142.07 213.794 140.556C215.154 139.237 216.296 138.074 217.194 137.115C218.091 136.156 218.778 135.415 219.234 134.905L219.737 134.32C219.779 134.262 219.818 134.2 219.852 134.137V134.137Z" fill="#FCA983"/>
<path d="M191.667 86.5436C191.842 86.89 192.044 87.222 192.272 87.5364L194.013 90.1748C195.963 93.0477 197.697 96.0616 199.201 99.1916C200.647 102.346 201.671 105.677 202.247 109.099C202.472 110.418 202.587 111.486 202.655 112.234C202.675 112.62 202.72 113.004 202.791 113.383C202.809 113.284 202.809 113.183 202.791 113.084C202.791 112.887 202.791 112.594 202.791 112.22C202.744 111.164 202.641 110.111 202.485 109.065C201.981 105.601 200.98 102.227 199.514 99.0488C198.011 95.8964 196.239 92.8795 194.217 90.032C193.455 88.9372 192.823 88.06 192.381 87.4548C192.165 87.134 191.927 86.8295 191.667 86.5436V86.5436Z" fill="#FCA983"/>
<path d="M192.638 103.17C192.597 103.217 193.318 103.788 194.141 104.951C195.213 106.478 195.997 108.188 196.453 109.997C196.897 111.817 197.193 113.671 197.337 115.539C197.376 116.319 197.467 117.096 197.609 117.864C197.651 117.659 197.663 117.448 197.643 117.239C197.643 116.831 197.643 116.246 197.588 115.525C197.513 113.631 197.247 111.749 196.793 109.908C196.329 108.055 195.494 106.316 194.338 104.795C193.982 104.343 193.586 103.924 193.155 103.544C193.002 103.393 192.828 103.267 192.638 103.17V103.17Z" fill="#FCA983"/>
<path d="M201.818 98.8312C201.974 99.4997 202.183 100.155 202.444 100.79C202.858 101.986 203.409 103.646 203.94 105.509C204.47 107.372 204.871 109.072 205.143 110.31C205.26 110.984 205.424 111.65 205.633 112.302C205.623 111.615 205.541 110.931 205.388 110.262C204.809 107.004 203.897 103.814 202.668 100.742C202.451 100.077 202.166 99.4372 201.818 98.8312V98.8312Z" fill="#FCA983"/>
<path d="M212.705 121.094C212.759 121.626 212.871 122.15 213.038 122.658C213.317 123.746 213.643 125.004 213.997 126.392C214.35 127.779 214.677 129.044 214.935 130.132C215.032 130.659 215.185 131.174 215.391 131.668C215.381 131.132 215.31 130.598 215.18 130.077C215.003 129.105 214.711 127.765 214.343 126.303C213.976 124.841 213.589 123.529 213.276 122.59C213.144 122.071 212.952 121.569 212.705 121.094Z" fill="#FCA983"/>
<path d="M151.827 95.4719C152.147 95.13 152.581 94.9166 153.047 94.8716C153.513 94.8266 153.98 94.9532 154.359 95.2277C154.739 95.5021 155.005 95.9056 155.109 96.3624C155.212 96.8192 155.145 97.298 154.921 97.7092C154.921 97.7092 154.887 97.7704 154.867 97.8044C152.908 101.062 146.231 111.724 146.231 111.724L144.599 115.396C144.599 115.396 141.083 120.986 140.43 122.611C139.777 124.236 130.835 138.856 129.659 140.155C128.483 141.454 122.288 140.155 122.288 140.155L115.603 126.963L122.288 111.724C122.288 111.724 121.961 109.534 123.26 110.017C123.952 110.258 124.611 110.587 125.219 110.996L139.975 89.6376C139.975 89.6376 143.823 83.1775 146.598 87.5499C146.598 87.5499 149.841 88.5291 148.005 92.9355C146.762 95.94 145.065 98.7356 142.973 101.225L140.369 108.066L151.827 95.4719Z" fill="#FFCCB0"/>
<path d="M151.825 95.4719C151.825 95.4719 151.75 95.5399 151.621 95.6759L151.03 96.3015L148.772 98.7496L140.286 107.998L140.462 108.1C141.251 106.06 142.135 103.741 143.087 101.266V101.306C144.73 99.3582 146.132 97.2189 147.262 94.9347C147.562 94.3273 147.847 93.7085 148.119 93.0784C148.403 92.4277 148.598 91.7414 148.697 91.0384C148.801 90.3027 148.685 89.5528 148.364 88.8828C148.002 88.1978 147.399 87.6719 146.671 87.4071L146.752 87.4684C146.409 86.8961 145.918 86.4265 145.331 86.1083C145.011 85.9603 144.663 85.8837 144.311 85.8837C143.959 85.8837 143.611 85.9603 143.291 86.1083C142.083 86.7525 141.055 87.6873 140.299 88.8284L135.478 95.8799L125.074 110.928L125.319 110.888C124.671 110.453 123.969 110.106 123.231 109.854C123.115 109.81 122.99 109.794 122.866 109.805C122.743 109.817 122.623 109.857 122.517 109.922C122.327 110.073 122.195 110.284 122.143 110.52C122.072 110.934 122.072 111.358 122.143 111.772V111.676C121.225 113.764 120.253 115.994 119.267 118.245C117.984 121.178 116.717 124.07 115.466 126.922L115.432 126.997L115.466 127.072C117.764 131.605 119.992 136.002 122.15 140.264L122.191 140.332H122.266C123.972 140.692 125.71 140.885 127.454 140.91C127.89 140.901 128.325 140.856 128.753 140.774C129.213 140.702 129.628 140.459 129.916 140.094C130.446 139.414 130.888 138.734 131.344 138.02C133.139 135.252 134.805 132.532 136.396 129.914L138.701 126.052C139.448 124.829 140.129 123.566 140.741 122.271C141.999 119.802 143.42 117.558 144.719 115.471C145.304 114.158 145.834 112.955 146.344 111.799L154.851 97.9199C155.118 97.5401 155.256 97.0851 155.246 96.6211C155.216 96.2167 155.056 95.8327 154.79 95.5263C154.592 95.2836 154.34 95.0899 154.055 94.9601C153.769 94.8304 153.458 94.7682 153.144 94.7784C152.763 94.8035 152.398 94.9433 152.097 95.1796C151.914 95.3564 151.825 95.4515 151.825 95.4515C151.825 95.4515 151.927 95.3767 152.118 95.2067C152.416 94.9864 152.774 94.8608 153.144 94.8463C153.441 94.8504 153.733 94.9209 153.999 95.0527C154.265 95.1845 154.498 95.3742 154.681 95.608C154.927 95.9014 155.073 96.2661 155.096 96.6484C155.102 97.0874 154.966 97.5167 154.708 97.8723L146.093 111.656L144.461 115.321C143.148 117.436 141.741 119.66 140.435 122.162C139.821 123.448 139.14 124.701 138.395 125.916L136.083 129.771C134.485 132.382 132.819 135.096 131.017 137.856C130.562 138.536 130.106 139.216 129.61 139.896C129.364 140.198 129.01 140.391 128.624 140.434C128.218 140.511 127.806 140.554 127.393 140.563C125.676 140.534 123.966 140.34 122.286 139.985L122.402 140.073L115.731 126.881V127.031C116.982 124.184 118.249 121.289 119.532 118.347C120.518 116.103 121.497 113.873 122.408 111.785V111.744V111.69C122.355 111.319 122.366 110.942 122.442 110.575C122.524 110.208 122.748 110.038 123.082 110.16C123.78 110.398 124.445 110.725 125.06 111.132L125.21 111.234L125.312 111.092L135.709 96.0228C137.355 93.636 138.953 91.3036 140.469 89.0528C141.186 87.9449 142.167 87.0334 143.325 86.4007C143.608 86.2559 143.921 86.177 144.238 86.1699C144.556 86.1628 144.872 86.2278 145.161 86.36C145.699 86.6584 146.147 87.095 146.46 87.6248V87.6655H146.514C147.165 87.9095 147.706 88.3804 148.038 88.9915C148.332 89.6115 148.439 90.3042 148.344 90.984C148.084 92.3171 147.613 93.6003 146.95 94.7851C145.846 97.0499 144.476 99.1751 142.87 101.116C141.931 103.598 141.061 105.91 140.279 107.964L140.082 108.487L140.456 108.072L148.867 98.7632L151.084 96.2811L151.655 95.6011L151.825 95.4719Z" fill="#FCA983"/>
<path d="M135.989 114.24C136.091 114.24 136.587 112.88 137.396 111.282C137.628 110.583 138.113 109.995 138.757 109.636C139.046 109.543 139.352 109.51 139.654 109.541C139.688 109.541 139.314 109.222 138.675 109.398C138.314 109.51 137.993 109.722 137.75 110.01C137.479 110.353 137.25 110.727 137.07 111.126C136.526 112.09 136.159 113.145 135.989 114.24Z" fill="#FCA983"/>
<path d="M132.981 107.923C133.166 107.662 133.326 107.384 133.457 107.093C133.743 106.549 134.137 105.733 134.695 104.795C135.756 102.864 137.32 100.259 139.224 97.4916C141.128 94.724 142.936 92.2692 144.215 90.474L145.718 88.3388C145.916 88.0866 146.089 87.8156 146.234 87.5296C146.002 87.7502 145.792 87.994 145.609 88.2572L144.011 90.2972C142.651 92.0516 140.835 94.486 138.931 97.2672C137.291 99.6318 135.804 102.098 134.477 104.652C133.967 105.631 133.586 106.44 133.335 107.005C133.187 107.298 133.069 107.606 132.981 107.923Z" fill="#FCA983"/>
<path d="M130.019 112.955C130.008 112.031 130.216 111.118 130.627 110.291C131.037 109.464 131.637 108.745 132.379 108.195C132.379 108.195 132.046 108.256 131.617 108.562C131.062 108.97 130.614 109.506 130.312 110.126C130.003 110.74 129.845 111.418 129.849 112.105C129.87 112.656 129.979 112.962 130.019 112.955Z" fill="#FCA983"/>
<path d="M120.397 120.244C120.721 119.821 121.002 119.365 121.234 118.884L123.104 115.484C123.831 114.165 124.464 112.948 124.885 112.084C125.148 111.616 125.355 111.118 125.504 110.602C125.176 111.023 124.895 111.479 124.667 111.962C124.123 112.941 123.491 114.084 122.791 115.362C122.09 116.64 121.431 117.898 121.009 118.796C120.749 119.253 120.543 119.739 120.397 120.244Z" fill="#FCA983"/>
<path d="M179.094 283.281C178.977 283.221 178.854 283.175 178.727 283.145L177.659 282.819L176.891 282.588C176.612 282.499 176.313 282.384 175.993 282.268C175.354 282.03 174.633 281.792 173.824 281.432L172.579 280.894C172.151 280.711 171.723 280.473 171.267 280.248C170.349 279.813 169.424 279.249 168.445 278.678C166.349 277.373 164.367 275.892 162.522 274.251C160.701 272.584 159.027 270.764 157.517 268.811C156.837 267.893 156.191 267.029 155.668 266.159C155.403 265.73 155.117 265.329 154.886 264.921C154.655 264.513 154.444 264.119 154.206 263.738C153.764 262.997 153.458 262.276 153.152 261.698C153.002 261.392 152.859 261.106 152.744 260.834C152.628 260.562 152.526 260.324 152.438 260.093L152.003 259.066C151.961 258.943 151.901 258.826 151.826 258.72C151.85 258.847 151.887 258.973 151.935 259.094C152.037 259.372 152.159 259.719 152.309 260.148C152.39 260.379 152.485 260.63 152.587 260.902C152.689 261.174 152.832 261.467 152.968 261.78C153.261 262.405 153.553 263.14 153.981 263.888C154.185 264.275 154.403 264.676 154.627 265.091C154.852 265.506 155.131 265.914 155.389 266.349C155.906 267.233 156.559 268.11 157.225 269.069C160.238 273.048 163.993 276.405 168.282 278.956C169.275 279.528 170.213 280.085 171.145 280.507C171.607 280.731 172.042 280.962 172.505 281.146L173.763 281.663C174.558 282.016 175.313 282.234 175.966 282.458C176.292 282.56 176.591 282.669 176.877 282.751L177.659 282.948L178.74 283.213C178.855 283.249 178.974 283.272 179.094 283.281Z" fill="#263238"/>
<path d="M213.916 135.572C215.201 135.714 279.461 167.103 279.801 181.852C280.141 196.602 274.715 203.198 269.248 211.582C263.78 219.966 234.466 251.464 232.854 252.042C231.242 252.62 209.414 222.36 209.414 222.36L218.411 201.824C218.411 201.824 221.308 193.732 230.304 197.635L237.689 190.543L197.848 152.32C197.848 152.32 190.463 132.967 213.916 135.572Z" fill="#D994F3"/>
<path d="M226.081 235.538C226.073 235.426 226.045 235.315 225.999 235.212C225.924 234.967 225.822 234.668 225.707 234.308C225.537 233.835 225.392 233.354 225.271 232.866C225.122 232.302 224.918 231.662 224.789 230.935C224.714 230.574 224.639 230.194 224.557 229.799C224.476 229.405 224.435 228.99 224.367 228.562C224.224 227.705 224.177 226.78 224.095 225.842C223.869 221.611 224.462 217.376 225.843 213.37C226.183 212.452 226.523 211.582 226.863 210.8C227.039 210.406 227.196 210.011 227.379 209.658C227.563 209.304 227.747 208.978 227.917 208.631C228.236 207.951 228.597 207.414 228.909 206.904C229.16 206.471 229.432 206.051 229.725 205.646L230.256 204.85C230.324 204.762 230.381 204.666 230.426 204.564C230.426 204.564 230.337 204.639 230.201 204.809L229.61 205.564C229.296 205.96 229.006 206.373 228.739 206.802C228.427 207.298 228.059 207.849 227.699 208.508C227.515 208.835 227.332 209.188 227.135 209.535C226.937 209.882 226.781 210.283 226.597 210.678C226.203 211.46 225.917 212.344 225.537 213.262C224.101 217.297 223.5 221.581 223.769 225.855C223.857 226.834 223.918 227.773 224.081 228.63C224.149 229.065 224.197 229.48 224.285 229.881L224.544 231.016C224.688 231.669 224.867 232.314 225.081 232.948C225.217 233.433 225.382 233.91 225.577 234.376C225.72 234.729 225.836 235.022 225.938 235.266C225.977 235.361 226.025 235.452 226.081 235.538V235.538Z" fill="#263238"/>
<path d="M221.934 262.623C221.864 262.452 221.782 262.286 221.689 262.126L220.941 260.766L220.39 259.767C220.2 259.4 220.016 258.985 219.798 258.543C219.39 257.666 218.874 256.686 218.438 255.537L217.711 253.762C217.459 253.144 217.255 252.477 217.031 251.804C216.528 250.444 216.133 248.968 215.671 247.411C213.88 240.609 213.282 233.548 213.903 226.542C214.08 224.937 214.216 223.4 214.488 221.986C214.61 221.306 214.705 220.585 214.848 219.946C214.991 219.307 215.134 218.668 215.27 218.069C215.508 216.866 215.854 215.812 216.106 214.873C216.242 214.411 216.358 213.969 216.487 213.574C216.616 213.18 216.745 212.82 216.854 212.493C217.065 211.868 217.235 211.371 217.364 210.997C217.431 210.826 217.481 210.648 217.514 210.467C217.427 210.628 217.355 210.797 217.296 210.97L216.725 212.446L216.324 213.52C216.188 213.914 216.065 214.35 215.916 214.819C215.644 215.75 215.276 216.804 215.025 218.008L214.576 219.885C214.426 220.565 214.331 221.245 214.195 221.925C213.91 223.346 213.767 224.883 213.576 226.501C212.914 233.544 213.518 240.649 215.358 247.479C215.814 249.043 216.222 250.532 216.718 251.886C216.97 252.566 217.18 253.246 217.439 253.851C217.697 254.456 217.956 255.054 218.194 255.626C218.649 256.768 219.186 257.747 219.615 258.618C219.839 259.053 220.036 259.468 220.234 259.835L220.812 260.821C221.152 261.385 221.417 261.841 221.621 262.181C221.71 262.338 221.815 262.486 221.934 262.623V262.623Z" fill="#263238"/>
<path d="M231.384 184.844C231.601 185.111 231.842 185.357 232.105 185.579C232.581 186.034 233.295 186.68 234.186 187.462C235.96 189.026 238.483 191.114 241.366 193.297C244.25 195.48 246.929 197.377 248.887 198.689C249.873 199.369 250.669 199.879 251.226 200.24C251.507 200.44 251.805 200.615 252.117 200.763C251.865 200.528 251.595 200.314 251.308 200.124L249.03 198.485C247.112 197.125 244.46 195.194 241.584 193.011C238.708 190.828 236.144 188.782 234.349 187.272L232.193 185.477C231.945 185.24 231.674 185.028 231.384 184.844V184.844Z" fill="#263238"/>
<path d="M131.805 138.292C131.805 138.292 128.031 122.284 110.725 125.582C110.725 125.582 73.4266 151.599 62.5806 165.417C51.7346 179.234 54.9782 184.457 57.8954 191.583C60.8126 198.71 71.067 210.678 89.7874 226.229L114.682 245.018C114.682 245.018 135.572 202.123 133.477 199.029C132.464 197.54 100.429 183.709 100.429 183.709C100.429 183.709 101.708 182.24 99.5998 179.867L112.391 164.227L131.805 138.292Z" fill="#D994F3"/>
<path d="M62.7674 176.12C62.4976 176.594 62.357 177.131 62.3595 177.677C62.266 179.004 62.6495 180.321 63.4407 181.39C64.2515 182.444 65.3943 183.194 66.6843 183.518C67.2015 183.687 67.7514 183.732 68.2891 183.648C68.2891 183.586 67.6703 183.573 66.7523 183.28C65.5535 182.904 64.4979 182.171 63.7262 181.179C62.9821 180.168 62.5904 178.94 62.6111 177.684C62.6179 176.705 62.8286 176.12 62.7674 176.12Z" fill="#263238"/>
<path d="M114.431 284.716C114.431 284.716 114.431 284.648 114.431 284.519C114.431 284.39 114.384 284.192 114.356 283.961C114.282 283.438 114.173 282.717 114.044 281.799C113.738 279.936 113.364 277.216 112.996 273.856C112.316 267.145 111.636 257.72 113.37 247.527C114.212 242.752 115.501 238.066 117.219 233.532C117.634 232.499 118.008 231.492 118.416 230.5L119.681 227.691C119.885 227.236 120.082 226.787 120.286 226.331L120.966 225.073C121.379 224.253 121.78 223.464 122.17 222.707C123.788 219.735 125.141 217.355 126.161 215.757L127.29 213.894L127.576 213.404C127.612 213.349 127.642 213.29 127.664 213.228C127.619 213.276 127.578 213.328 127.542 213.384L127.229 213.853C126.943 214.295 126.549 214.907 126.039 215.682C124.992 217.26 123.598 219.626 121.959 222.584L120.735 224.944L120.055 226.202C119.837 226.637 119.647 227.086 119.436 227.562L118.151 230.377C117.736 231.356 117.355 232.376 116.934 233.417C115.191 237.965 113.888 242.669 113.044 247.466C111.324 257.713 112.004 267.186 112.765 273.884C113.187 277.243 113.581 279.963 113.928 281.826C114.084 282.737 114.214 283.451 114.309 283.968C114.35 284.199 114.384 284.383 114.411 284.526C114.408 284.59 114.415 284.654 114.431 284.716Z" fill="#263238"/>
<path d="M95.9627 191.4C96.3569 191.112 96.7093 190.771 97.0099 190.386C97.7764 189.502 98.4593 188.548 99.0498 187.537C99.6427 186.524 100.141 185.459 100.539 184.355C100.729 183.906 100.853 183.432 100.906 182.947C100.797 182.913 100.124 184.987 98.7438 187.36C97.3634 189.734 95.8743 191.325 95.9627 191.4Z" fill="#263238"/>
<path d="M87.4213 191.08C87.6304 190.996 87.8271 190.884 88.0062 190.747C88.3666 190.516 88.8765 190.162 89.5021 189.706C90.7465 188.802 92.4193 187.49 94.1737 185.932C95.9281 184.375 97.4241 182.852 98.4645 181.716C98.9813 181.152 99.3961 180.683 99.6681 180.356C99.8235 180.196 99.9561 180.015 100.062 179.819C99.4343 180.361 98.8393 180.94 98.2809 181.553C97.1997 182.634 95.6833 184.117 93.9425 185.674C92.2017 187.231 90.5425 188.564 89.3525 189.516C88.6795 190 88.0348 190.522 87.4213 191.08V191.08Z" fill="#263238"/>
<g opacity="0.3">
<path opacity="0.3" d="M251.547 200.246C248.266 200.735 244.924 199.901 242.258 197.927C239.592 195.953 237.818 193.001 237.328 189.72C241.891 192.637 247.297 196.901 251.547 200.246Z" fill="black"/>
</g>
<g opacity="0.3">
<path opacity="0.3" d="M114.322 228.106C116.694 222.646 120.891 218.182 126.195 215.478L126.242 215.574C120.122 224.502 116.117 235.008 113.485 245.494C111.749 239.775 112.045 233.632 114.322 228.106V228.106Z" fill="black"/>
</g>
</svg>
