<svg width="638" height="181" viewBox="0 0 638 181" fill="none" xmlns="http://www.w3.org/2000/svg">
<path d="M315.536 115C317.076 112.333 320.924 112.333 322.464 115L346.713 157C348.252 159.667 346.328 163 343.249 163H294.751C291.672 163 289.748 159.667 291.287 157L315.536 115Z" fill="#EAECEF"/>
<rect x="0.566406" y="149.714" width="642" height="8" rx="4" transform="rotate(-8 0.566406 149.714)" fill="#EAECEF"/>
<circle cx="51" cy="92" r="50" fill="#D357FF"/>
<path d="M42.2734 85.1562H38.1484V88.1875H43.6953V89.8125H30.6797V88.1875H36.1641V85.1562H32.2109V78.2188H42.1641V79.8125H34.2109V83.5781H42.2734V85.1562ZM56.8359 91.4375H54.9297V84.2656H53.6484V90.7812H51.7578V77.4219H53.6484V82.6406H54.9297V77.2188H56.8359V91.4375ZM44.9141 78.6875H50.5703V87.8594H44.9141V78.6875ZM48.7109 86.2969V80.2656H46.7734V86.2969H48.7109ZM63.5234 79.4531C63.5182 80.0469 63.6328 80.612 63.8672 81.1484C64.1068 81.6797 64.4688 82.1536 64.9531 82.5703C65.4427 82.987 66.0495 83.3073 66.7734 83.5312L65.7109 85.0781C64.9714 84.8333 64.3359 84.4792 63.8047 84.0156C63.2734 83.5521 62.8516 83.0026 62.5391 82.3672C62.2214 83.1016 61.7812 83.737 61.2188 84.2734C60.6615 84.8047 59.987 85.2031 59.1953 85.4688L58.1172 83.9062C58.8828 83.651 59.5182 83.2865 60.0234 82.8125C60.5286 82.3385 60.9036 81.7995 61.1484 81.1953C61.3932 80.5859 61.5182 79.9427 61.5234 79.2656V77.9688H63.5234V79.4531ZM60.0859 88.6875C60.0859 88.1198 60.2812 87.6302 60.6719 87.2188C61.0677 86.8021 61.6328 86.4844 62.3672 86.2656C63.1016 86.0469 63.9661 85.9375 64.9609 85.9375C65.9401 85.9375 66.7891 86.0469 67.5078 86.2656C68.2266 86.4844 68.7812 86.8021 69.1719 87.2188C69.5625 87.6302 69.7578 88.1198 69.7578 88.6875C69.7578 89.2604 69.5625 89.7526 69.1719 90.1641C68.7812 90.5807 68.2266 90.8958 67.5078 91.1094C66.7891 91.3281 65.9401 91.4375 64.9609 91.4375C63.9661 91.4375 63.1016 91.3281 62.3672 91.1094C61.6328 90.8958 61.0677 90.5807 60.6719 90.1641C60.2812 89.7526 60.0859 89.2604 60.0859 88.6875ZM62.0859 88.6875C62.0807 89.0833 62.3203 89.3802 62.8047 89.5781C63.2943 89.776 64.013 89.875 64.9609 89.875C66.8464 89.875 67.7891 89.4792 67.7891 88.6875C67.7891 88.3021 67.5469 88.0078 67.0625 87.8047C66.5833 87.6016 65.8828 87.5 64.9609 87.5C64.0234 87.5 63.3073 87.6016 62.8125 87.8047C62.3229 88.0078 62.0807 88.3021 62.0859 88.6875ZM67.6172 77.2188H69.6172V80.5469H71.5391V82.2031H69.6172V85.6562H67.6172V77.2188ZM49.5781 104.656H47.5938V101.297H45.375V99.6875H47.5938V96.2188H49.5781V104.656ZM37.5 103.094C38.2448 102.844 38.8724 102.487 39.3828 102.023C39.8932 101.56 40.276 101.039 40.5312 100.461C40.7865 99.8828 40.9219 99.2865 40.9375 98.6719H38.0781V97.0781H45.7969V98.6719H42.9688C42.9844 99.2448 43.112 99.7969 43.3516 100.328C43.5911 100.854 43.9531 101.328 44.4375 101.75C44.9271 102.172 45.526 102.5 46.2344 102.734L45.25 104.297C44.4896 104.052 43.8333 103.688 43.2812 103.203C42.7344 102.714 42.3021 102.141 41.9844 101.484C41.6615 102.229 41.2109 102.878 40.6328 103.43C40.0547 103.977 39.3542 104.391 38.5312 104.672L37.5 103.094ZM39.8281 107.719C39.8281 107.151 40.0234 106.661 40.4141 106.25C40.8099 105.833 41.375 105.516 42.1094 105.297C42.8438 105.078 43.7135 104.969 44.7188 104.969C45.7292 104.969 46.6016 105.078 47.3359 105.297C48.0703 105.516 48.6354 105.831 49.0312 106.242C49.4271 106.654 49.625 107.146 49.625 107.719C49.625 108.292 49.4271 108.781 49.0312 109.188C48.6354 109.599 48.0703 109.911 47.3359 110.125C46.6016 110.344 45.7292 110.453 44.7188 110.453C43.7135 110.453 42.8438 110.344 42.1094 110.125C41.375 109.911 40.8099 109.599 40.4141 109.188C40.0234 108.776 39.8281 108.286 39.8281 107.719ZM41.8125 107.719C41.8125 108.12 42.0599 108.424 42.5547 108.633C43.0495 108.836 43.7708 108.938 44.7188 108.938C45.6719 108.938 46.3958 108.836 46.8906 108.633C47.3854 108.43 47.6354 108.125 47.6406 107.719C47.6354 107.318 47.388 107.016 46.8984 106.812C46.4141 106.604 45.7057 106.5 44.7734 106.5C42.7995 106.5 41.8125 106.906 41.8125 107.719ZM64.4375 108.781H51.4219V107.156H56.9062V104.531H52.7969V97.125H54.7969V99.3281H61V97.125H62.9844V104.531H58.8906V107.156H64.4375V108.781ZM61 102.938V100.922H54.7969V102.938H61Z" fill="white"/>
<circle cx="605" cy="32" r="32" fill="#D994F3"/>
<path d="M599.108 30.7676H587.72V29.373H592.478V26.5566H594.214V29.373H599.108V30.7676ZM587.993 25.5039C588.896 25.3626 589.679 25.0824 590.345 24.6631C591.015 24.2438 591.525 23.7471 591.876 23.1729C592.227 22.5986 592.405 22.013 592.409 21.416V20.5273H594.269V21.416C594.264 22.0176 594.437 22.6055 594.788 23.1797C595.144 23.7539 595.659 24.2507 596.333 24.6699C597.007 25.0846 597.8 25.3626 598.712 25.5039L597.974 26.9531C596.898 26.7572 595.962 26.3857 595.164 25.8389C594.367 25.292 593.758 24.6243 593.339 23.8359C592.924 24.6243 592.318 25.2943 591.521 25.8457C590.728 26.3926 589.798 26.7617 588.731 26.9531L587.993 25.5039ZM610.606 32.2578H608.938V25.9824H607.817V31.6836H606.163V19.9941H607.817V24.5605H608.938V19.8164H610.606V32.2578ZM600.175 21.1016H605.124V29.127H600.175V21.1016ZM603.497 27.7598V22.4824H601.802V27.7598H603.497ZM616.458 21.7715C616.453 22.291 616.554 22.7855 616.759 23.2549C616.968 23.7197 617.285 24.1344 617.709 24.499C618.137 24.8636 618.668 25.1439 619.302 25.3398L618.372 26.6934C617.725 26.4792 617.169 26.1693 616.704 25.7637C616.239 25.3581 615.87 24.8773 615.597 24.3213C615.319 24.9639 614.934 25.5199 614.441 25.9893C613.954 26.4541 613.364 26.8027 612.671 27.0352L611.728 25.668C612.397 25.4447 612.953 25.1257 613.396 24.7109C613.838 24.2962 614.166 23.8245 614.38 23.2959C614.594 22.7627 614.703 22.1999 614.708 21.6074V20.4727H616.458V21.7715ZM613.45 29.8516C613.45 29.3548 613.621 28.9264 613.963 28.5664C614.309 28.2018 614.804 27.9238 615.446 27.7324C616.089 27.541 616.845 27.4453 617.716 27.4453C618.573 27.4453 619.315 27.541 619.944 27.7324C620.573 27.9238 621.059 28.2018 621.4 28.5664C621.742 28.9264 621.913 29.3548 621.913 29.8516C621.913 30.3529 621.742 30.7835 621.4 31.1436C621.059 31.5081 620.573 31.7839 619.944 31.9707C619.315 32.1621 618.573 32.2578 617.716 32.2578C616.845 32.2578 616.089 32.1621 615.446 31.9707C614.804 31.7839 614.309 31.5081 613.963 31.1436C613.621 30.7835 613.45 30.3529 613.45 29.8516ZM615.2 29.8516C615.196 30.1979 615.405 30.4577 615.829 30.6309C616.257 30.804 616.886 30.8906 617.716 30.8906C619.366 30.8906 620.19 30.5443 620.19 29.8516C620.19 29.5143 619.979 29.2568 619.555 29.0791C619.135 28.9014 618.522 28.8125 617.716 28.8125C616.896 28.8125 616.269 28.9014 615.836 29.0791C615.408 29.2568 615.196 29.5143 615.2 29.8516ZM620.04 19.8164H621.79V22.7285H623.472V24.1777H621.79V27.1992H620.04V19.8164ZM604.256 44.1992H602.52V41.2598H600.578V39.8516H602.52V36.8164H604.256V44.1992ZM593.688 42.832C594.339 42.6133 594.888 42.3011 595.335 41.8955C595.782 41.4899 596.117 41.0342 596.34 40.5283C596.563 40.0225 596.682 39.5007 596.695 38.9629H594.193V37.5684H600.947V38.9629H598.473C598.486 39.4642 598.598 39.9473 598.808 40.4121C599.017 40.8724 599.334 41.2871 599.758 41.6562C600.186 42.0254 600.71 42.3125 601.33 42.5176L600.469 43.8848C599.803 43.6706 599.229 43.3516 598.746 42.9277C598.268 42.4993 597.889 41.998 597.611 41.4238C597.329 42.0755 596.935 42.6429 596.429 43.126C595.923 43.6045 595.31 43.9668 594.59 44.2129L593.688 42.832ZM595.725 46.8789C595.725 46.3822 595.896 45.9538 596.237 45.5938C596.584 45.2292 597.078 44.9512 597.721 44.7598C598.363 44.5684 599.124 44.4727 600.004 44.4727C600.888 44.4727 601.651 44.5684 602.294 44.7598C602.937 44.9512 603.431 45.2269 603.777 45.5869C604.124 45.9469 604.297 46.3776 604.297 46.8789C604.297 47.3802 604.124 47.8086 603.777 48.1641C603.431 48.5241 602.937 48.7975 602.294 48.9844C601.651 49.1758 600.888 49.2715 600.004 49.2715C599.124 49.2715 598.363 49.1758 597.721 48.9844C597.078 48.7975 596.584 48.5241 596.237 48.1641C595.896 47.804 595.725 47.3757 595.725 46.8789ZM597.461 46.8789C597.461 47.2298 597.677 47.4964 598.11 47.6787C598.543 47.8564 599.174 47.9453 600.004 47.9453C600.838 47.9453 601.471 47.8564 601.904 47.6787C602.337 47.501 602.556 47.2344 602.561 46.8789C602.556 46.528 602.34 46.2637 601.911 46.0859C601.487 45.9036 600.868 45.8125 600.052 45.8125C598.325 45.8125 597.461 46.168 597.461 46.8789ZM617.258 47.8086H605.869V46.3867H610.668V44.0898H607.072V37.6094H608.822V39.5371H614.25V37.6094H615.986V44.0898H612.404V46.3867H617.258V47.8086ZM614.25 42.6953V40.9316H608.822V42.6953H614.25Z" fill="white"/>
</svg>
