<svg width="19" height="14" viewBox="0 0 19 14" fill="none" xmlns="http://www.w3.org/2000/svg">
<path d="M18.603 2.92298C18.3845 2.12232 17.7406 1.49176 16.9232 1.27776C15.4415 0.888916 9.5 0.888916 9.5 0.888916C9.5 0.888916 3.55856 0.888916 2.07682 1.27776C1.25936 1.49179 0.615539 2.12232 0.397023 2.92298C0 4.3742 0 7.40205 0 7.40205C0 7.40205 0 10.4299 0.397023 11.8811C0.615539 12.6818 1.25936 13.2861 2.07682 13.5001C3.55856 13.8889 9.5 13.8889 9.5 13.8889C9.5 13.8889 15.4414 13.8889 16.9232 13.5001C17.7406 13.2861 18.3845 12.6818 18.603 11.8811C19 10.4299 19 7.40205 19 7.40205C19 7.40205 19 4.3742 18.603 2.92298ZM7.5568 10.1511V4.65299L12.5227 7.40212L7.5568 10.1511Z" fill="#262626"/>
</svg>
