<svg width="153" height="16" viewBox="0 0 153 16" fill="none" xmlns="http://www.w3.org/2000/svg">
<path d="M0.0742188 0.859362H5.85552C6.91022 0.859362 7.82162 1.05136 8.58982 1.43546C9.36462 1.81316 9.95702 2.35676 10.3672 3.06636C10.7839 3.76946 10.9922 4.59636 10.9922 5.54686C10.9987 6.51036 10.7904 7.33716 10.3672 8.02726C9.94402 8.71736 9.33532 9.24146 8.54102 9.59956L11.5 15H7.84772L5.25002 10.1367H3.39452V15H0.0742188V0.859362ZM5.15232 7.48046C6.75392 7.49346 7.55472 6.84896 7.55472 5.54686C7.55472 4.88276 7.34962 4.38476 6.93952 4.05266C6.53582 3.72066 5.94012 3.55466 5.15232 3.55466H3.39452V7.48046H5.15232ZM12.8672 0.859362H22.6523V3.57416H16.1875V6.56246H22.1445V9.27726H16.1875V12.2852H22.6719V15H12.8672V0.859362ZM24.1172 15L28.9219 0.859362H33.3359L38.1211 15H34.5469L33.5898 11.9727H28.668L27.7109 15H24.1172ZM32.7891 9.43356L31.1875 4.35546H31.0703L29.4688 9.43356H32.7891ZM48.3555 5.95696C48.2643 5.22136 47.9681 4.64186 47.4668 4.21876C46.972 3.79556 46.3307 3.58716 45.543 3.59376C44.8529 3.59376 44.2539 3.76296 43.7461 4.10156C43.2448 4.44006 42.8574 4.93486 42.584 5.58586C42.3171 6.23696 42.1836 7.01816 42.1836 7.92966C42.1836 8.86716 42.3171 9.66146 42.584 10.3125C42.8574 10.957 43.2448 11.4453 43.7461 11.7773C44.2474 12.1029 44.8398 12.2656 45.5234 12.2656C46.2852 12.2656 46.9167 12.0703 47.418 11.6797C47.9193 11.2891 48.2318 10.7487 48.3555 10.0586L51.7148 10.0781C51.6237 10.9505 51.3177 11.7773 50.7969 12.5586C50.2826 13.3398 49.5697 13.9746 48.6582 14.4629C47.7467 14.9512 46.6823 15.1953 45.4648 15.1953C44.1758 15.1953 43.0267 14.9089 42.0176 14.3359C41.0085 13.763 40.2174 12.9297 39.6445 11.8359C39.0716 10.7422 38.7852 9.44006 38.7852 7.92966C38.7852 6.41276 39.0749 5.10736 39.6543 4.01366C40.2337 2.91986 41.028 2.08976 42.0371 1.52336C43.0527 0.950461 44.1953 0.664062 45.4648 0.664062C46.5977 0.664062 47.6133 0.872362 48.5117 1.28906C49.4167 1.70566 50.1458 2.31446 50.6992 3.11516C51.2591 3.90946 51.5977 4.85676 51.7148 5.95696H48.3555ZM53.1602 0.859362H65.0547V3.57416H60.7578V15H57.457V3.57416H53.1602V0.859362ZM78.824 5.05856C78.779 4.53776 78.567 4.13406 78.189 3.84766C77.812 3.56116 77.288 3.41796 76.617 3.41796C75.953 3.41796 75.445 3.54816 75.094 3.80856C74.7422 4.06896 74.5664 4.41076 74.5664 4.83396C74.5664 5.23756 74.7454 5.55986 75.104 5.80076C75.468 6.04166 75.992 6.23696 76.676 6.38666L77.906 6.67966C79.299 6.98566 80.364 7.49016 81.1 8.19336C81.842 8.88996 82.216 9.79166 82.223 10.8984C82.223 11.7839 81.998 12.5488 81.549 13.1934C81.106 13.8379 80.465 14.3327 79.625 14.6777C78.785 15.0228 77.783 15.1953 76.617 15.1953C75.426 15.1888 74.3939 15.0065 73.5215 14.6484C72.6556 14.2904 71.9818 13.75 71.5 13.0273C71.0247 12.3047 70.7773 11.4128 70.7578 10.3516H73.9609C74 11.0221 74.2507 11.5365 74.7129 11.8945C75.182 12.2461 75.803 12.4219 76.578 12.4219C77.275 12.4219 77.822 12.2852 78.219 12.0117C78.622 11.7318 78.831 11.3607 78.844 10.8984C78.837 10.4948 78.652 10.1725 78.287 9.93156C77.923 9.69076 77.34 9.47916 76.539 9.29686L75.055 8.94526C72.4375 8.33326 71.1289 7.03116 71.1289 5.03906C71.1289 4.17966 71.3633 3.41796 71.832 2.75386C72.3008 2.08976 72.9518 1.57546 73.7852 1.21086C74.625 0.846361 75.576 0.664062 76.637 0.664062C77.711 0.664062 78.652 0.849561 79.459 1.22066C80.273 1.58526 80.901 2.09956 81.344 2.76366C81.793 3.42766 82.021 4.19266 82.027 5.05856H78.824ZM93.336 5.95696C93.245 5.22136 92.949 4.64186 92.447 4.21876C91.952 3.79556 91.311 3.58716 90.523 3.59376C89.833 3.59376 89.234 3.76296 88.727 4.10156C88.225 4.44006 87.838 4.93486 87.564 5.58586C87.298 6.23696 87.164 7.01816 87.164 7.92966C87.164 8.86716 87.298 9.66146 87.564 10.3125C87.838 10.957 88.225 11.4453 88.727 11.7773C89.228 12.1029 89.82 12.2656 90.504 12.2656C91.266 12.2656 91.897 12.0703 92.398 11.6797C92.9 11.2891 93.212 10.7487 93.336 10.0586L96.695 10.0781C96.604 10.9505 96.298 11.7773 95.777 12.5586C95.263 13.3398 94.55 13.9746 93.639 14.4629C92.727 14.9512 91.663 15.1953 90.445 15.1953C89.156 15.1953 88.007 14.9089 86.998 14.3359C85.989 13.763 85.198 12.9297 84.625 11.8359C84.052 10.7422 83.766 9.44006 83.766 7.92966C83.766 6.41276 84.055 5.10736 84.635 4.01366C85.214 2.91986 86.008 2.08976 87.018 1.52336C88.033 0.950461 89.176 0.664062 90.445 0.664062C91.578 0.664062 92.594 0.872362 93.492 1.28906C94.397 1.70566 95.126 2.31446 95.68 3.11516C96.24 3.90946 96.578 4.85676 96.695 5.95696H93.336ZM98.629 0.859362H101.949V6.56246H107.633V0.859362H110.953V15H107.633V9.27726H101.949V15H98.629V0.859362ZM126.363 7.92966C126.363 9.44006 126.07 10.7454 125.484 11.8457C124.905 12.9395 124.104 13.7728 123.082 14.3457C122.066 14.9121 120.921 15.1953 119.645 15.1953C118.362 15.1953 117.213 14.9089 116.197 14.3359C115.182 13.763 114.381 12.9297 113.795 11.8359C113.215 10.7357 112.926 9.43356 112.926 7.92966C112.926 6.41276 113.215 5.10736 113.795 4.01366C114.381 2.91986 115.182 2.08976 116.197 1.52336C117.213 0.950461 118.362 0.664062 119.645 0.664062C120.921 0.664062 122.066 0.950461 123.082 1.52336C124.104 2.08976 124.905 2.91986 125.484 4.01366C126.07 5.10736 126.363 6.41276 126.363 7.92966ZM116.324 7.92966C116.324 8.85416 116.458 9.64186 116.725 10.293C116.992 10.944 117.372 11.4355 117.867 11.7676C118.362 12.0996 118.954 12.2656 119.645 12.2656C120.335 12.2656 120.927 12.0996 121.422 11.7676C121.923 11.4355 122.304 10.944 122.564 10.293C122.831 9.64186 122.965 8.85416 122.965 7.92966C122.965 7.00516 122.831 6.21736 122.564 5.56636C122.304 4.91536 121.923 4.42376 121.422 4.09176C120.927 3.75326 120.335 3.58716 119.645 3.59376C118.954 3.58716 118.362 3.75326 117.867 4.09176C117.372 4.42376 116.992 4.91536 116.725 5.56636C116.458 6.21736 116.324 7.00516 116.324 7.92966ZM141.598 7.92966C141.598 9.44006 141.305 10.7454 140.719 11.8457C140.139 12.9395 139.339 13.7728 138.316 14.3457C137.301 14.9121 136.155 15.1953 134.879 15.1953C133.596 15.1953 132.447 14.9089 131.432 14.3359C130.416 13.763 129.615 12.9297 129.029 11.8359C128.45 10.7357 128.16 9.43356 128.16 7.92966C128.16 6.41276 128.45 5.10736 129.029 4.01366C129.615 2.91986 130.416 2.08976 131.432 1.52336C132.447 0.950461 133.596 0.664062 134.879 0.664062C136.155 0.664062 137.301 0.950461 138.316 1.52336C139.339 2.08976 140.139 2.91986 140.719 4.01366C141.305 5.10736 141.598 6.41276 141.598 7.92966ZM131.559 7.92966C131.559 8.85416 131.692 9.64186 131.959 10.293C132.226 10.944 132.607 11.4355 133.102 11.7676C133.596 12.0996 134.189 12.2656 134.879 12.2656C135.569 12.2656 136.161 12.0996 136.656 11.7676C137.158 11.4355 137.538 10.944 137.799 10.293C138.066 9.64186 138.199 8.85416 138.199 7.92966C138.199 7.00516 138.066 6.21736 137.799 5.56636C137.538 4.91536 137.158 4.42376 136.656 4.09176C136.161 3.75326 135.569 3.58716 134.879 3.59376C134.189 3.58716 133.596 3.75326 133.102 4.09176C132.607 4.42376 132.226 4.91536 131.959 5.56636C131.692 6.21736 131.559 7.00516 131.559 7.92966ZM143.57 0.859362H146.891V12.2852H152.828V15H143.57V0.859362Z" fill="black"/>
</svg>
